<svg
 xmlns="http://www.w3.org/2000/svg"
 xmlns:xlink="http://www.w3.org/1999/xlink"
 width="96px" height="96px">
<defs>
<linearGradient id="PSgrad_0" x1="0%" x2="0%" y1="0%" y2="100%">
  <stop offset="0%" stop-color="rgb(240,153,132)" stop-opacity="1" />
  <stop offset="99%" stop-color="rgb(236,100,82)" stop-opacity="1" />
</linearGradient>

</defs>
<path fill-rule="evenodd"  fill="rgb(251, 236, 233)"
 d="M36.015,0.015 L59.985,0.015 C79.868,0.015 95.985,16.132 95.985,36.015 L95.985,59.985 C95.985,79.868 79.868,95.985 59.985,95.985 L36.015,95.985 C16.132,95.985 0.015,79.868 0.015,59.985 L0.015,36.015 C0.015,16.132 16.132,0.015 36.015,0.015 Z"/>
<path fill-rule="evenodd"  fill="rgb(229, 250, 249)"
 d="M63.656,35.092 C57.983,34.943 51.319,29.120 43.965,28.993 C40.398,28.985 36.843,29.398 33.376,30.221 L33.053,29.332 L28.998,30.772 L43.965,71.007 L48.020,69.567 L41.140,51.164 C47.610,46.929 56.797,49.047 63.375,45.934 C70.320,42.567 72.002,33.228 72.002,33.228 C69.446,34.589 66.559,35.234 63.656,35.092 L63.656,35.092 Z"/>
<path fill="url(#PSgrad_0)"
 d="M63.656,35.092 C57.983,34.943 51.319,29.120 43.965,28.993 C40.398,28.985 36.843,29.398 33.376,30.221 L33.053,29.332 L28.998,30.772 L43.965,71.007 L48.020,69.567 L41.140,51.164 C47.610,46.929 56.797,49.047 63.375,45.934 C70.320,42.567 72.002,33.228 72.002,33.228 C69.446,34.589 66.559,35.234 63.656,35.092 L63.656,35.092 Z"/>
</svg>
