<svg
 xmlns="http://www.w3.org/2000/svg"
 xmlns:xlink="http://www.w3.org/1999/xlink"
 width="96px" height="96px">
<defs>
<linearGradient id="PSgrad_0" x1="0%" x2="0%" y1="0%" y2="100%">
  <stop offset="0%" stop-color="rgb(245,191,101)" stop-opacity="1" />
  <stop offset="99%" stop-color="rgb(240,152,58)" stop-opacity="1" />
</linearGradient>

</defs>
<path fill-rule="evenodd"  fill="rgb(252, 237, 215)"
 d="M36.015,0.015 L59.985,0.015 C79.868,0.015 95.985,16.132 95.985,36.015 L95.985,59.985 C95.985,79.868 79.868,95.985 59.985,95.985 L36.015,95.985 C16.132,95.985 0.015,79.868 0.015,59.985 L0.015,36.015 C0.015,16.132 16.132,0.015 36.015,0.015 Z"/>
<path fill-rule="evenodd"  fill="rgb(229, 250, 249)"
 d="M68.530,68.354 L57.768,68.354 C56.584,68.354 55.616,67.386 55.616,66.202 L55.616,64.049 C55.616,62.865 56.584,61.897 57.768,61.897 C58.403,61.897 58.962,61.467 59.124,60.853 L61.050,53.793 C59.737,53.061 58.844,51.673 58.844,50.059 C58.844,49.789 58.876,49.521 58.941,49.252 C58.952,49.219 58.952,49.176 58.962,49.144 C59.016,48.907 59.081,48.670 59.178,48.444 C59.199,48.401 59.210,48.358 59.231,48.315 C59.328,48.089 59.447,47.885 59.576,47.680 C59.597,47.659 59.619,47.626 59.640,47.594 C59.780,47.390 59.942,47.185 60.114,47.013 C60.114,47.002 60.125,47.002 60.125,47.002 C60.297,46.830 60.490,46.669 60.695,46.529 C60.727,46.507 60.749,46.485 60.781,46.464 C60.975,46.335 61.190,46.217 61.416,46.120 C61.459,46.098 61.502,46.087 61.545,46.066 C61.771,45.980 61.997,45.904 62.245,45.851 C62.288,45.840 62.320,45.840 62.363,45.829 C62.611,45.786 62.880,45.754 63.149,45.754 C63.246,45.754 63.353,45.765 63.450,45.775 C63.525,45.775 63.590,45.775 63.655,45.786 C63.827,45.797 63.999,45.829 64.171,45.872 C64.350,45.910 64.517,45.969 64.680,46.032 C64.712,46.045 64.727,46.051 64.763,46.066 C66.036,46.581 66.988,47.672 67.325,49.004 C67.820,51.049 66.840,52.910 65.248,53.804 L67.174,60.864 C67.335,61.467 67.895,61.897 68.530,61.897 C69.714,61.897 70.682,62.865 70.682,64.049 L70.682,66.202 C70.682,67.386 69.714,68.354 68.530,68.354 ZM64.446,45.938 C64.221,45.848 64.033,45.771 64.446,45.938 ZM64.752,46.055 C64.730,46.046 64.703,46.041 64.680,46.032 C64.590,45.996 64.508,45.963 64.446,45.938 C64.594,45.997 64.752,46.059 64.752,46.055 ZM64.279,42.654 C63.859,42.590 63.418,42.525 63.149,42.525 C58.995,42.525 55.616,45.904 55.616,50.059 C55.616,51.307 55.928,52.512 56.498,53.578 C57.036,54.589 57.176,55.762 56.874,56.860 C56.562,57.980 55.820,58.905 54.851,59.529 C53.366,60.487 52.387,62.155 52.387,64.049 L52.387,66.202 C52.387,66.729 52.462,67.246 52.613,67.719 C52.699,68.042 52.462,68.354 52.129,68.354 L34.091,68.354 C31.713,68.354 29.786,66.428 29.786,64.049 L29.786,31.763 C29.786,29.385 31.713,27.458 34.091,27.458 L60.996,27.458 C63.375,27.458 65.301,29.385 65.301,31.763 L65.301,41.782 C65.301,42.331 64.817,42.740 64.279,42.654 ZM37.858,52.211 L47.544,52.211 C48.437,52.211 49.158,51.490 49.158,50.597 C49.158,49.704 48.437,48.982 47.544,48.982 L37.858,48.982 C36.965,48.982 36.243,49.704 36.243,50.597 C36.243,51.490 36.965,52.211 37.858,52.211 ZM37.858,45.754 L47.544,45.754 C48.437,45.754 49.158,45.033 49.158,44.140 C49.158,43.246 48.437,42.525 47.544,42.525 L37.858,42.525 C36.965,42.525 36.243,43.246 36.243,44.140 C36.243,45.033 36.965,45.754 37.858,45.754 ZM56.153,36.068 L37.858,36.068 C36.965,36.068 36.243,36.789 36.243,37.682 C36.243,38.575 36.965,39.296 37.858,39.296 L56.153,39.296 C57.047,39.296 57.768,38.575 57.768,37.682 C57.768,36.789 57.047,36.068 56.153,36.068 Z"/>
<path fill="url(#PSgrad_0)"
 d="M68.530,68.354 L57.768,68.354 C56.584,68.354 55.616,67.386 55.616,66.202 L55.616,64.049 C55.616,62.865 56.584,61.897 57.768,61.897 C58.403,61.897 58.962,61.467 59.124,60.853 L61.050,53.793 C59.737,53.061 58.844,51.673 58.844,50.059 C58.844,49.789 58.876,49.521 58.941,49.252 C58.952,49.219 58.952,49.176 58.962,49.144 C59.016,48.907 59.081,48.670 59.178,48.444 C59.199,48.401 59.210,48.358 59.231,48.315 C59.328,48.089 59.447,47.885 59.576,47.680 C59.597,47.659 59.619,47.626 59.640,47.594 C59.780,47.390 59.942,47.185 60.114,47.013 C60.114,47.002 60.125,47.002 60.125,47.002 C60.297,46.830 60.490,46.669 60.695,46.529 C60.727,46.507 60.749,46.485 60.781,46.464 C60.975,46.335 61.190,46.217 61.416,46.120 C61.459,46.098 61.502,46.087 61.545,46.066 C61.771,45.980 61.997,45.904 62.245,45.851 C62.288,45.840 62.320,45.840 62.363,45.829 C62.611,45.786 62.880,45.754 63.149,45.754 C63.246,45.754 63.353,45.765 63.450,45.775 C63.525,45.775 63.590,45.775 63.655,45.786 C63.827,45.797 63.999,45.829 64.171,45.872 C64.350,45.910 64.517,45.969 64.680,46.032 C64.712,46.045 64.727,46.051 64.763,46.066 C66.036,46.581 66.988,47.672 67.325,49.004 C67.820,51.049 66.840,52.910 65.248,53.804 L67.174,60.864 C67.335,61.467 67.895,61.897 68.530,61.897 C69.714,61.897 70.682,62.865 70.682,64.049 L70.682,66.202 C70.682,67.386 69.714,68.354 68.530,68.354 ZM64.446,45.938 C64.221,45.848 64.033,45.771 64.446,45.938 ZM64.752,46.055 C64.730,46.046 64.703,46.041 64.680,46.032 C64.590,45.996 64.508,45.963 64.446,45.938 C64.594,45.997 64.752,46.059 64.752,46.055 ZM64.279,42.654 C63.859,42.590 63.418,42.525 63.149,42.525 C58.995,42.525 55.616,45.904 55.616,50.059 C55.616,51.307 55.928,52.512 56.498,53.578 C57.036,54.589 57.176,55.762 56.874,56.860 C56.562,57.980 55.820,58.905 54.851,59.529 C53.366,60.487 52.387,62.155 52.387,64.049 L52.387,66.202 C52.387,66.729 52.462,67.246 52.613,67.719 C52.699,68.042 52.462,68.354 52.129,68.354 L34.091,68.354 C31.713,68.354 29.786,66.428 29.786,64.049 L29.786,31.763 C29.786,29.385 31.713,27.458 34.091,27.458 L60.996,27.458 C63.375,27.458 65.301,29.385 65.301,31.763 L65.301,41.782 C65.301,42.331 64.817,42.740 64.279,42.654 ZM37.858,52.211 L47.544,52.211 C48.437,52.211 49.158,51.490 49.158,50.597 C49.158,49.704 48.437,48.982 47.544,48.982 L37.858,48.982 C36.965,48.982 36.243,49.704 36.243,50.597 C36.243,51.490 36.965,52.211 37.858,52.211 ZM37.858,45.754 L47.544,45.754 C48.437,45.754 49.158,45.033 49.158,44.140 C49.158,43.246 48.437,42.525 47.544,42.525 L37.858,42.525 C36.965,42.525 36.243,43.246 36.243,44.140 C36.243,45.033 36.965,45.754 37.858,45.754 ZM56.153,36.068 L37.858,36.068 C36.965,36.068 36.243,36.789 36.243,37.682 C36.243,38.575 36.965,39.296 37.858,39.296 L56.153,39.296 C57.047,39.296 57.768,38.575 57.768,37.682 C57.768,36.789 57.047,36.068 56.153,36.068 Z"/>
</svg>
