<svg
 xmlns="http://www.w3.org/2000/svg"
 xmlns:xlink="http://www.w3.org/1999/xlink"
 width="96px" height="96px">
<defs>
<linearGradient id="PSgrad_0" x1="0%" x2="0%" y1="0%" y2="100%">
  <stop offset="0%" stop-color="rgb(106,143,214)" stop-opacity="1" />
  <stop offset="99%" stop-color="rgb(78,110,170)" stop-opacity="1" />
</linearGradient>

</defs>
<path fill-rule="evenodd"  fill="rgb(224, 237, 251)"
 d="M36.015,0.015 L59.985,0.015 C79.868,0.015 95.985,16.132 95.985,36.015 L95.985,59.985 C95.985,79.868 79.868,95.985 59.985,95.985 L36.015,95.985 C16.132,95.985 0.015,79.868 0.015,59.985 L0.015,36.015 C0.015,16.132 16.132,0.015 36.015,0.015 Z"/>
<path fill-rule="evenodd"  fill="rgb(255, 255, 255)"
 d="M83.618,60.528 L83.618,62.273 L75.086,62.273 L75.086,60.528 L78.038,60.528 L78.038,56.981 L75.590,56.981 L75.590,55.235 L78.038,55.235 L78.038,51.815 L75.086,51.815 L75.086,50.034 L77.804,50.051 L77.498,49.331 L80.414,49.331 L80.738,50.034 L83.618,50.034 L83.618,51.815 L80.666,51.815 L80.666,55.235 L83.114,55.235 L83.114,56.981 L80.666,56.981 L80.666,60.528 L83.618,60.528 ZM74.210,61.797 C74.060,61.947 73.885,62.064 73.686,62.148 C73.488,62.232 73.273,62.273 73.045,62.273 L70.406,62.273 L70.982,61.013 L72.134,61.013 C72.266,61.013 72.377,60.968 72.467,60.878 C72.557,60.788 72.602,60.676 72.602,60.543 L72.602,56.784 L67.904,56.784 L69.416,51.905 L71.594,51.905 L70.550,55.308 L72.098,55.308 L72.098,51.276 C72.098,51.144 72.050,51.032 71.954,50.942 C71.857,50.852 71.744,50.807 71.612,50.807 L68.210,50.807 L68.210,49.331 L72.533,49.331 C72.993,49.331 73.384,49.491 73.704,49.808 C74.025,50.127 74.186,50.514 74.186,50.969 L74.186,55.308 L74.690,55.308 L74.690,60.635 C74.690,60.864 74.647,61.077 74.563,61.275 C74.479,61.472 74.361,61.647 74.210,61.797 ZM71.765,39.630 C71.765,39.198 71.668,38.886 71.477,38.694 C71.284,38.502 70.966,38.406 70.523,38.406 L68.435,38.406 L68.435,45.300 L66.023,45.300 L66.023,36.534 L70.667,36.534 C71.362,36.534 71.893,36.585 72.260,36.687 C72.625,36.789 72.958,36.972 73.259,37.236 C73.870,37.800 74.177,38.688 74.177,39.900 L74.177,45.300 L71.765,45.300 L71.765,39.630 ZM57.680,53.688 L52.676,62.273 L49.616,62.273 L55.070,53.273 L57.446,53.273 L56.366,51.203 L51.884,51.203 L52.568,49.349 L55.394,49.349 L57.896,49.349 L58.328,49.349 L65.114,62.273 L62.162,62.273 L57.680,53.688 ZM59.435,36.534 L61.847,36.534 L61.847,45.300 L59.435,45.300 L59.435,36.534 ZM59.435,33.294 L61.847,33.294 L61.847,35.634 L59.435,35.634 L59.435,33.294 ZM52.793,36.300 L49.661,45.300 L47.033,45.300 L44.063,36.300 L44.063,45.300 L41.633,45.300 L41.633,33.294 L45.359,33.294 L48.347,42.672 L51.497,33.294 L55.223,33.294 L55.223,45.300 L52.793,45.300 L52.793,36.300 ZM33.875,38.172 C34.619,38.172 35.210,38.220 35.648,38.316 C36.086,38.412 36.461,38.580 36.773,38.820 C37.613,39.456 38.033,40.386 38.033,41.610 C38.033,43.158 37.385,44.232 36.089,44.832 C35.405,45.144 34.301,45.300 32.777,45.300 L27.521,45.300 L27.521,43.176 L32.777,43.176 C33.497,43.176 34.049,43.116 34.433,42.996 C34.673,42.912 34.862,42.759 35.000,42.537 C35.138,42.315 35.207,42.054 35.207,41.754 C35.207,41.418 35.129,41.127 34.973,40.881 C34.817,40.635 34.613,40.476 34.361,40.404 C34.157,40.344 33.629,40.308 32.777,40.296 L27.521,40.296 L27.521,33.294 L37.385,33.294 L37.385,35.436 L30.059,35.436 L30.059,38.172 L33.875,38.172 ZM20.915,33.294 L23.471,33.294 L23.471,45.300 L20.915,45.300 L20.915,33.294 ZM27.854,49.781 L27.854,51.510 L11.996,51.510 L11.996,49.781 L18.350,49.781 L18.170,49.278 L20.906,49.278 L21.086,49.781 L27.854,49.781 ZM14.426,51.905 L17.234,51.905 L17.666,52.698 L22.202,52.698 L22.670,51.905 L25.388,51.905 L24.920,52.698 L26.324,52.698 C26.756,52.698 27.119,52.850 27.413,53.156 C27.707,53.462 27.854,53.820 27.854,54.227 L27.854,60.329 C27.854,60.642 27.806,60.900 27.710,61.104 C27.613,61.344 27.469,61.560 27.278,61.751 C27.122,61.908 26.911,62.052 26.648,62.183 C26.408,62.280 26.150,62.327 25.874,62.327 L23.714,62.327 L24.416,60.761 L24.794,60.761 C24.950,60.761 25.082,60.702 25.190,60.582 C25.298,60.486 25.352,60.360 25.352,60.204 L25.352,54.893 C25.352,54.749 25.304,54.630 25.208,54.533 C25.112,54.438 24.992,54.389 24.848,54.389 L14.498,54.389 L14.498,62.327 L11.996,62.327 L11.996,52.698 L14.894,52.698 L14.426,51.905 ZM19.124,54.732 L17.540,56.784 L15.002,56.784 L16.640,54.732 L19.124,54.732 ZM20.762,54.732 L23.264,54.732 L24.902,56.784 L22.400,56.784 L20.762,54.732 ZM24.560,59.519 C24.560,59.832 24.506,60.090 24.398,60.294 C24.290,60.558 24.146,60.774 23.966,60.941 C23.774,61.134 23.570,61.272 23.354,61.355 C23.078,61.463 22.826,61.517 22.598,61.517 L15.290,61.517 L15.290,57.179 L24.560,57.179 L24.560,59.519 ZM22.274,58.674 L17.558,58.674 L17.558,59.969 L21.716,59.969 C21.871,59.969 22.010,59.910 22.130,59.789 C22.226,59.682 22.274,59.544 22.274,59.375 L22.274,58.674 ZM44.360,49.313 L46.916,49.313 L46.916,50.807 L46.916,60.329 C46.916,60.606 46.864,60.860 46.763,61.094 C46.661,61.328 46.520,61.536 46.340,61.716 C46.160,61.895 45.950,62.037 45.710,62.138 C45.469,62.241 45.212,62.292 44.936,62.292 L31.112,62.292 L31.112,60.797 L31.112,50.807 L31.112,49.313 L33.560,49.313 L44.360,49.313 ZM33.560,60.797 L43.802,60.797 C43.957,60.797 44.090,60.743 44.198,60.635 C44.306,60.528 44.360,60.396 44.360,60.239 L44.360,57.503 L43.316,57.503 C43.220,57.791 43.048,58.029 42.803,58.214 C42.557,58.401 42.278,58.494 41.966,58.494 L39.356,58.494 L39.716,57.611 L40.742,57.611 C40.850,57.611 40.942,57.573 41.021,57.494 C41.099,57.417 41.138,57.323 41.138,57.215 L41.138,56.945 L36.926,56.945 L36.926,58.588 C36.926,58.921 37.094,59.087 37.430,59.087 L43.892,59.087 L43.298,60.348 L37.268,60.348 L36.062,60.348 C35.618,60.348 35.249,60.221 34.955,59.969 C34.660,59.718 34.514,59.316 34.514,58.763 L34.514,57.503 L33.560,57.503 L33.560,60.797 ZM41.588,55.865 L41.048,55.037 L36.962,55.037 L36.422,55.865 L41.588,55.865 ZM33.560,57.215 L34.946,55.037 L33.902,55.037 L33.902,53.976 L37.646,53.976 L37.646,53.291 L34.046,53.291 L34.046,52.247 L35.090,52.247 L34.352,51.203 L36.296,51.203 L37.016,52.247 L37.646,52.247 L37.646,51.149 L40.382,51.149 L40.382,52.247 L41.174,52.247 L41.912,51.203 L43.766,51.203 L43.028,52.247 L43.982,52.247 L43.982,53.291 L40.382,53.291 L40.382,53.976 L44.126,53.976 L44.126,55.037 L43.046,55.037 L44.360,57.125 L44.360,50.807 L33.560,50.807 L33.560,57.215 ZM71.684,59.753 L67.850,59.753 L67.850,58.277 L71.684,58.277 L71.684,59.753 Z"/>
<path fill="url(#PSgrad_0)"
 d="M83.618,60.528 L83.618,62.273 L75.086,62.273 L75.086,60.528 L78.038,60.528 L78.038,56.981 L75.590,56.981 L75.590,55.235 L78.038,55.235 L78.038,51.815 L75.086,51.815 L75.086,50.034 L77.804,50.051 L77.498,49.331 L80.414,49.331 L80.738,50.034 L83.618,50.034 L83.618,51.815 L80.666,51.815 L80.666,55.235 L83.114,55.235 L83.114,56.981 L80.666,56.981 L80.666,60.528 L83.618,60.528 ZM74.210,61.797 C74.060,61.947 73.885,62.064 73.686,62.148 C73.488,62.232 73.273,62.273 73.045,62.273 L70.406,62.273 L70.982,61.013 L72.134,61.013 C72.266,61.013 72.377,60.968 72.467,60.878 C72.557,60.788 72.602,60.676 72.602,60.543 L72.602,56.784 L67.904,56.784 L69.416,51.905 L71.594,51.905 L70.550,55.308 L72.098,55.308 L72.098,51.276 C72.098,51.144 72.050,51.032 71.954,50.942 C71.857,50.852 71.744,50.807 71.612,50.807 L68.210,50.807 L68.210,49.331 L72.533,49.331 C72.993,49.331 73.384,49.491 73.704,49.808 C74.025,50.127 74.186,50.514 74.186,50.969 L74.186,55.308 L74.690,55.308 L74.690,60.635 C74.690,60.864 74.647,61.077 74.563,61.275 C74.479,61.472 74.361,61.647 74.210,61.797 ZM71.765,39.630 C71.765,39.198 71.668,38.886 71.477,38.694 C71.284,38.502 70.966,38.406 70.523,38.406 L68.435,38.406 L68.435,45.300 L66.023,45.300 L66.023,36.534 L70.667,36.534 C71.362,36.534 71.893,36.585 72.260,36.687 C72.625,36.789 72.958,36.972 73.259,37.236 C73.870,37.800 74.177,38.688 74.177,39.900 L74.177,45.300 L71.765,45.300 L71.765,39.630 ZM57.680,53.688 L52.676,62.273 L49.616,62.273 L55.070,53.273 L57.446,53.273 L56.366,51.203 L51.884,51.203 L52.568,49.349 L55.394,49.349 L57.896,49.349 L58.328,49.349 L65.114,62.273 L62.162,62.273 L57.680,53.688 ZM59.435,36.534 L61.847,36.534 L61.847,45.300 L59.435,45.300 L59.435,36.534 ZM59.435,33.294 L61.847,33.294 L61.847,35.634 L59.435,35.634 L59.435,33.294 ZM52.793,36.300 L49.661,45.300 L47.033,45.300 L44.063,36.300 L44.063,45.300 L41.633,45.300 L41.633,33.294 L45.359,33.294 L48.347,42.672 L51.497,33.294 L55.223,33.294 L55.223,45.300 L52.793,45.300 L52.793,36.300 ZM33.875,38.172 C34.619,38.172 35.210,38.220 35.648,38.316 C36.086,38.412 36.461,38.580 36.773,38.820 C37.613,39.456 38.033,40.386 38.033,41.610 C38.033,43.158 37.385,44.232 36.089,44.832 C35.405,45.144 34.301,45.300 32.777,45.300 L27.521,45.300 L27.521,43.176 L32.777,43.176 C33.497,43.176 34.049,43.116 34.433,42.996 C34.673,42.912 34.862,42.759 35.000,42.537 C35.138,42.315 35.207,42.054 35.207,41.754 C35.207,41.418 35.129,41.127 34.973,40.881 C34.817,40.635 34.613,40.476 34.361,40.404 C34.157,40.344 33.629,40.308 32.777,40.296 L27.521,40.296 L27.521,33.294 L37.385,33.294 L37.385,35.436 L30.059,35.436 L30.059,38.172 L33.875,38.172 ZM20.915,33.294 L23.471,33.294 L23.471,45.300 L20.915,45.300 L20.915,33.294 ZM27.854,49.781 L27.854,51.510 L11.996,51.510 L11.996,49.781 L18.350,49.781 L18.170,49.278 L20.906,49.278 L21.086,49.781 L27.854,49.781 ZM14.426,51.905 L17.234,51.905 L17.666,52.698 L22.202,52.698 L22.670,51.905 L25.388,51.905 L24.920,52.698 L26.324,52.698 C26.756,52.698 27.119,52.850 27.413,53.156 C27.707,53.462 27.854,53.820 27.854,54.227 L27.854,60.329 C27.854,60.642 27.806,60.900 27.710,61.104 C27.613,61.344 27.469,61.560 27.278,61.751 C27.122,61.908 26.911,62.052 26.648,62.183 C26.408,62.280 26.150,62.327 25.874,62.327 L23.714,62.327 L24.416,60.761 L24.794,60.761 C24.950,60.761 25.082,60.702 25.190,60.582 C25.298,60.486 25.352,60.360 25.352,60.204 L25.352,54.893 C25.352,54.749 25.304,54.630 25.208,54.533 C25.112,54.438 24.992,54.389 24.848,54.389 L14.498,54.389 L14.498,62.327 L11.996,62.327 L11.996,52.698 L14.894,52.698 L14.426,51.905 ZM19.124,54.732 L17.540,56.784 L15.002,56.784 L16.640,54.732 L19.124,54.732 ZM20.762,54.732 L23.264,54.732 L24.902,56.784 L22.400,56.784 L20.762,54.732 ZM24.560,59.519 C24.560,59.832 24.506,60.090 24.398,60.294 C24.290,60.558 24.146,60.774 23.966,60.941 C23.774,61.134 23.570,61.272 23.354,61.355 C23.078,61.463 22.826,61.517 22.598,61.517 L15.290,61.517 L15.290,57.179 L24.560,57.179 L24.560,59.519 ZM22.274,58.674 L17.558,58.674 L17.558,59.969 L21.716,59.969 C21.871,59.969 22.010,59.910 22.130,59.789 C22.226,59.682 22.274,59.544 22.274,59.375 L22.274,58.674 ZM44.360,49.313 L46.916,49.313 L46.916,50.807 L46.916,60.329 C46.916,60.606 46.864,60.860 46.763,61.094 C46.661,61.328 46.520,61.536 46.340,61.716 C46.160,61.895 45.950,62.037 45.710,62.138 C45.469,62.241 45.212,62.292 44.936,62.292 L31.112,62.292 L31.112,60.797 L31.112,50.807 L31.112,49.313 L33.560,49.313 L44.360,49.313 ZM33.560,60.797 L43.802,60.797 C43.957,60.797 44.090,60.743 44.198,60.635 C44.306,60.528 44.360,60.396 44.360,60.239 L44.360,57.503 L43.316,57.503 C43.220,57.791 43.048,58.029 42.803,58.214 C42.557,58.401 42.278,58.494 41.966,58.494 L39.356,58.494 L39.716,57.611 L40.742,57.611 C40.850,57.611 40.942,57.573 41.021,57.494 C41.099,57.417 41.138,57.323 41.138,57.215 L41.138,56.945 L36.926,56.945 L36.926,58.588 C36.926,58.921 37.094,59.087 37.430,59.087 L43.892,59.087 L43.298,60.348 L37.268,60.348 L36.062,60.348 C35.618,60.348 35.249,60.221 34.955,59.969 C34.660,59.718 34.514,59.316 34.514,58.763 L34.514,57.503 L33.560,57.503 L33.560,60.797 ZM41.588,55.865 L41.048,55.037 L36.962,55.037 L36.422,55.865 L41.588,55.865 ZM33.560,57.215 L34.946,55.037 L33.902,55.037 L33.902,53.976 L37.646,53.976 L37.646,53.291 L34.046,53.291 L34.046,52.247 L35.090,52.247 L34.352,51.203 L36.296,51.203 L37.016,52.247 L37.646,52.247 L37.646,51.149 L40.382,51.149 L40.382,52.247 L41.174,52.247 L41.912,51.203 L43.766,51.203 L43.028,52.247 L43.982,52.247 L43.982,53.291 L40.382,53.291 L40.382,53.976 L44.126,53.976 L44.126,55.037 L43.046,55.037 L44.360,57.125 L44.360,50.807 L33.560,50.807 L33.560,57.215 ZM71.684,59.753 L67.850,59.753 L67.850,58.277 L71.684,58.277 L71.684,59.753 Z"/>
</svg>
