<svg
 xmlns="http://www.w3.org/2000/svg"
 xmlns:xlink="http://www.w3.org/1999/xlink"
 width="96px" height="96px">
<defs>
<linearGradient id="PSgrad_0" x1="0%" x2="0%" y1="0%" y2="100%">
  <stop offset="0%" stop-color="rgb(106,143,214)" stop-opacity="1" />
  <stop offset="99%" stop-color="rgb(78,110,170)" stop-opacity="1" />
</linearGradient>

</defs>
<path fill-rule="evenodd"  fill="rgb(224, 237, 251)"
 d="M36.015,0.015 L59.985,0.015 C79.868,0.015 95.985,16.132 95.985,36.015 L95.985,59.985 C95.985,79.868 79.868,95.985 59.985,95.985 L36.015,95.985 C16.132,95.985 0.015,79.868 0.015,59.985 L0.015,36.015 C0.015,16.132 16.132,0.015 36.015,0.015 Z"/>
<path fill-rule="evenodd"  fill="rgb(229, 250, 249)"
 d="M47.667,49.502 L51.557,49.502 C52.272,49.502 52.852,48.923 52.852,48.208 C52.852,47.494 52.272,46.915 51.557,46.915 L48.227,46.915 L51.477,43.673 C51.982,43.168 51.982,42.348 51.475,41.843 C50.969,41.338 50.149,41.339 49.643,41.844 L46.607,44.875 L43.570,41.844 C43.064,41.339 42.244,41.338 41.738,41.843 C41.231,42.348 41.231,43.168 41.736,43.673 L44.986,46.915 L41.186,46.915 C40.471,46.915 39.891,47.494 39.891,48.208 C39.891,48.923 40.471,49.502 41.186,49.502 L45.075,49.502 L45.075,52.089 L41.186,52.089 C40.724,52.089 40.296,52.335 40.065,52.735 C39.834,53.135 39.834,53.628 40.065,54.028 C40.296,54.428 40.724,54.675 41.186,54.675 L45.075,54.675 L45.075,58.742 C45.075,59.085 45.212,59.414 45.455,59.657 C45.697,59.899 46.027,60.035 46.370,60.035 L46.373,60.035 C46.716,60.035 47.045,59.899 47.288,59.657 C47.531,59.414 47.667,59.085 47.667,58.742 L47.667,54.675 L51.557,54.675 C52.019,54.675 52.447,54.428 52.678,54.028 C52.909,53.628 52.909,53.135 52.678,52.735 C52.447,52.335 52.019,52.089 51.557,52.089 L47.667,52.089 L47.667,49.502 ZM31.767,39.673 L44.714,28.896 C45.674,28.097 47.068,28.097 48.029,28.896 L60.976,39.673 C61.567,40.164 61.908,40.893 61.908,41.661 L61.908,63.728 C61.908,65.156 60.749,66.314 59.319,66.314 L33.424,66.314 C31.994,66.314 30.835,65.156 30.835,63.728 L30.835,41.661 C30.835,40.893 31.176,40.164 31.767,39.673 L31.767,39.673 ZM49.057,27.006 L49.893,26.310 C50.853,25.511 52.248,25.511 53.208,26.310 L66.155,37.086 C66.746,37.578 67.087,38.306 67.087,39.074 L67.087,61.141 C67.087,62.570 65.928,63.728 64.498,63.728 L64.498,40.368 C64.498,39.599 64.156,38.871 63.566,38.380 L50.618,27.603 C50.178,27.236 49.629,27.026 49.057,27.006 L49.057,27.006 Z"/>
<path fill="url(#PSgrad_0)"
 d="M47.667,49.502 L51.557,49.502 C52.272,49.502 52.852,48.923 52.852,48.208 C52.852,47.494 52.272,46.915 51.557,46.915 L48.227,46.915 L51.477,43.673 C51.982,43.168 51.982,42.348 51.475,41.843 C50.969,41.338 50.149,41.339 49.643,41.844 L46.607,44.875 L43.570,41.844 C43.064,41.339 42.244,41.338 41.738,41.843 C41.231,42.348 41.231,43.168 41.736,43.673 L44.986,46.915 L41.186,46.915 C40.471,46.915 39.891,47.494 39.891,48.208 C39.891,48.923 40.471,49.502 41.186,49.502 L45.075,49.502 L45.075,52.089 L41.186,52.089 C40.724,52.089 40.296,52.335 40.065,52.735 C39.834,53.135 39.834,53.628 40.065,54.028 C40.296,54.428 40.724,54.675 41.186,54.675 L45.075,54.675 L45.075,58.742 C45.075,59.085 45.212,59.414 45.455,59.657 C45.697,59.899 46.027,60.035 46.370,60.035 L46.373,60.035 C46.716,60.035 47.045,59.899 47.288,59.657 C47.531,59.414 47.667,59.085 47.667,58.742 L47.667,54.675 L51.557,54.675 C52.019,54.675 52.447,54.428 52.678,54.028 C52.909,53.628 52.909,53.135 52.678,52.735 C52.447,52.335 52.019,52.089 51.557,52.089 L47.667,52.089 L47.667,49.502 ZM31.767,39.673 L44.714,28.896 C45.674,28.097 47.068,28.097 48.029,28.896 L60.976,39.673 C61.567,40.164 61.908,40.893 61.908,41.661 L61.908,63.728 C61.908,65.156 60.749,66.314 59.319,66.314 L33.424,66.314 C31.994,66.314 30.835,65.156 30.835,63.728 L30.835,41.661 C30.835,40.893 31.176,40.164 31.767,39.673 L31.767,39.673 ZM49.057,27.006 L49.893,26.310 C50.853,25.511 52.248,25.511 53.208,26.310 L66.155,37.086 C66.746,37.578 67.087,38.306 67.087,39.074 L67.087,61.141 C67.087,62.570 65.928,63.728 64.498,63.728 L64.498,40.368 C64.498,39.599 64.156,38.871 63.566,38.380 L50.618,27.603 C50.178,27.236 49.629,27.026 49.057,27.006 L49.057,27.006 Z"/>
</svg>
