<svg
 xmlns="http://www.w3.org/2000/svg"
 xmlns:xlink="http://www.w3.org/1999/xlink"
 width="96px" height="96px">
<defs>
<linearGradient id="PSgrad_0" x1="0%" x2="0%" y1="0%" y2="100%">
  <stop offset="0%" stop-color="rgb(103,213,205)" stop-opacity="1" />
  <stop offset="99%" stop-color="rgb(78,170,166)" stop-opacity="1" />
</linearGradient>

</defs>
<path fill-rule="evenodd"  fill="rgb(229, 250, 249)"
 d="M36.015,0.015 L59.985,0.015 C79.868,0.015 95.985,16.132 95.985,36.015 L95.985,59.985 C95.985,79.868 79.868,95.985 59.985,95.985 L36.015,95.985 C16.132,95.985 0.015,79.868 0.015,59.985 L0.015,36.015 C0.015,16.132 16.132,0.015 36.015,0.015 Z"/>
<path fill-rule="evenodd"  fill="rgb(229, 250, 249)"
 d="M48.435,35.946 C52.198,35.946 55.246,32.787 55.246,28.896 C55.246,24.998 52.198,21.839 48.435,21.839 C44.669,21.839 41.614,24.998 41.614,28.896 C41.614,32.787 44.669,35.946 48.435,35.946 L48.435,35.946 ZM60.521,41.927 C60.182,40.898 58.250,37.779 53.007,37.750 L42.744,37.777 C37.655,37.492 35.623,40.503 35.305,41.837 C35.305,41.837 31.868,52.823 32.458,55.367 C32.823,56.948 35.561,58.880 38.477,60.316 L34.594,72.161 L61.975,72.161 L58.198,59.903 C60.801,58.524 63.087,56.804 63.417,55.368 C64.015,52.793 60.521,41.927 60.521,41.927 L60.521,41.927 ZM43.843,54.034 C43.354,54.253 42.825,54.367 42.289,54.368 C40.148,54.368 38.415,52.603 38.415,50.431 C38.415,48.257 40.150,46.495 42.289,46.495 C44.390,46.495 46.117,48.198 46.174,50.322 C46.729,49.923 47.365,49.651 48.036,49.525 L48.036,49.536 C48.806,49.390 49.404,49.536 49.404,49.536 C51.986,50.109 57.697,52.644 57.697,52.644 C57.697,52.644 54.633,56.443 49.067,56.417 C48.922,56.417 48.779,56.414 48.645,56.410 L48.643,56.410 C48.180,56.399 47.717,56.368 47.257,56.315 C44.629,56.004 43.876,55.023 43.843,54.034 L43.843,54.034 Z"/>
<path fill="url(#PSgrad_0)"
 d="M48.435,35.946 C52.198,35.946 55.246,32.787 55.246,28.896 C55.246,24.998 52.198,21.839 48.435,21.839 C44.669,21.839 41.614,24.998 41.614,28.896 C41.614,32.787 44.669,35.946 48.435,35.946 L48.435,35.946 ZM60.521,41.927 C60.182,40.898 58.250,37.779 53.007,37.750 L42.744,37.777 C37.655,37.492 35.623,40.503 35.305,41.837 C35.305,41.837 31.868,52.823 32.458,55.367 C32.823,56.948 35.561,58.880 38.477,60.316 L34.594,72.161 L61.975,72.161 L58.198,59.903 C60.801,58.524 63.087,56.804 63.417,55.368 C64.015,52.793 60.521,41.927 60.521,41.927 L60.521,41.927 ZM43.843,54.034 C43.354,54.253 42.825,54.367 42.289,54.368 C40.148,54.368 38.415,52.603 38.415,50.431 C38.415,48.257 40.150,46.495 42.289,46.495 C44.390,46.495 46.117,48.198 46.174,50.322 C46.729,49.923 47.365,49.651 48.036,49.525 L48.036,49.536 C48.806,49.390 49.404,49.536 49.404,49.536 C51.986,50.109 57.697,52.644 57.697,52.644 C57.697,52.644 54.633,56.443 49.067,56.417 C48.922,56.417 48.779,56.414 48.645,56.410 L48.643,56.410 C48.180,56.399 47.717,56.368 47.257,56.315 C44.629,56.004 43.876,55.023 43.843,54.034 L43.843,54.034 Z"/>
</svg>
