<svg
 xmlns="http://www.w3.org/2000/svg"
 xmlns:xlink="http://www.w3.org/1999/xlink"
 width="96px" height="96px">
<defs>
<linearGradient id="PSgrad_0" x1="0%" x2="0%" y1="0%" y2="100%">
  <stop offset="0%" stop-color="rgb(106,143,214)" stop-opacity="1" />
  <stop offset="99%" stop-color="rgb(78,110,170)" stop-opacity="1" />
</linearGradient>

</defs>
<path fill-rule="evenodd"  fill="rgb(224, 237, 251)"
 d="M36.015,0.015 L59.985,0.015 C79.868,0.015 95.985,16.132 95.985,36.015 L95.985,59.985 C95.985,79.868 79.868,95.985 59.985,95.985 L36.015,95.985 C16.132,95.985 0.015,79.868 0.015,59.985 L0.015,36.015 C0.015,16.132 16.132,0.015 36.015,0.015 Z"/>
<path fill-rule="evenodd"  fill="rgb(229, 250, 249)"
 d="M66.377,48.567 C65.477,49.242 64.376,49.595 63.251,49.570 L47.510,49.570 C47.218,49.570 46.938,49.686 46.732,49.892 C46.525,50.099 46.409,50.379 46.409,50.671 L46.409,56.685 L47.235,56.685 C47.840,56.661 48.430,56.880 48.872,57.294 C49.315,57.708 49.573,58.282 49.590,58.888 L49.590,67.809 C49.543,69.070 48.485,70.056 47.224,70.012 L42.094,70.012 C40.842,70.043 39.797,69.062 39.750,67.809 L39.750,58.899 C39.763,58.298 40.021,57.730 40.464,57.324 C40.907,56.919 41.495,56.712 42.094,56.751 L42.931,56.751 L42.931,48.281 C42.943,47.164 43.851,46.265 44.967,46.265 L63.141,46.265 C63.746,46.265 64.451,46.111 64.451,45.406 L64.451,38.665 C64.451,37.942 63.864,37.355 63.141,37.355 L62.470,37.355 L62.470,34.050 L63.141,34.050 L63.152,34.061 L63.229,34.061 C64.458,34.056 65.639,34.538 66.512,35.404 C67.386,36.270 67.880,37.447 67.885,38.676 L67.885,45.406 C67.904,46.638 67.346,47.807 66.377,48.567 ZM58.914,43.181 L32.892,43.181 C32.127,43.170 31.398,42.854 30.865,42.305 C30.332,41.756 30.040,41.017 30.052,40.251 L30.052,30.922 C30.037,30.155 30.328,29.413 30.861,28.862 C31.394,28.310 32.125,27.993 32.892,27.982 L58.925,27.982 C60.508,28.024 61.758,29.339 61.721,30.922 L61.721,40.251 L61.732,40.251 C61.747,41.014 61.458,41.751 60.930,42.300 C60.401,42.850 59.676,43.167 58.914,43.181 Z"/>
<path fill="url(#PSgrad_0)"
 d="M66.377,48.567 C65.477,49.242 64.376,49.595 63.251,49.570 L47.510,49.570 C47.218,49.570 46.938,49.686 46.732,49.892 C46.525,50.099 46.409,50.379 46.409,50.671 L46.409,56.685 L47.235,56.685 C47.840,56.661 48.430,56.880 48.872,57.294 C49.315,57.708 49.573,58.282 49.590,58.888 L49.590,67.809 C49.543,69.070 48.485,70.056 47.224,70.012 L42.094,70.012 C40.842,70.043 39.797,69.062 39.750,67.809 L39.750,58.899 C39.763,58.298 40.021,57.730 40.464,57.324 C40.907,56.919 41.495,56.712 42.094,56.751 L42.931,56.751 L42.931,48.281 C42.943,47.164 43.851,46.265 44.967,46.265 L63.141,46.265 C63.746,46.265 64.451,46.111 64.451,45.406 L64.451,38.665 C64.451,37.942 63.864,37.355 63.141,37.355 L62.470,37.355 L62.470,34.050 L63.141,34.050 L63.152,34.061 L63.229,34.061 C64.458,34.056 65.639,34.538 66.512,35.404 C67.386,36.270 67.880,37.447 67.885,38.676 L67.885,45.406 C67.904,46.638 67.346,47.807 66.377,48.567 ZM58.914,43.181 L32.892,43.181 C32.127,43.170 31.398,42.854 30.865,42.305 C30.332,41.756 30.040,41.017 30.052,40.251 L30.052,30.922 C30.037,30.155 30.328,29.413 30.861,28.862 C31.394,28.310 32.125,27.993 32.892,27.982 L58.925,27.982 C60.508,28.024 61.758,29.339 61.721,30.922 L61.721,40.251 L61.732,40.251 C61.747,41.014 61.458,41.751 60.930,42.300 C60.401,42.850 59.676,43.167 58.914,43.181 Z"/>
</svg>
