<svg
 xmlns="http://www.w3.org/2000/svg"
 xmlns:xlink="http://www.w3.org/1999/xlink"
 width="96px" height="96px">
<defs>
<linearGradient id="PSgrad_0" x1="0%" x2="0%" y1="0%" y2="100%">
  <stop offset="0%" stop-color="rgb(214,106,106)" stop-opacity="1" />
  <stop offset="99%" stop-color="rgb(186,61,61)" stop-opacity="1" />
</linearGradient>

</defs>
<path fill-rule="evenodd"  fill="rgb(255, 231, 231)"
 d="M36.015,0.015 L59.985,0.015 C79.868,0.015 95.985,16.132 95.985,36.015 L95.985,59.985 C95.985,79.868 79.868,95.985 59.985,95.985 L36.015,95.985 C16.132,95.985 0.015,79.868 0.015,59.985 L0.015,36.015 C0.015,16.132 16.132,0.015 36.015,0.015 Z"/>
<path fill-rule="evenodd"  fill="rgb(255, 231, 231)"
 d="M64.727,40.124 C65.512,39.310 65.911,35.656 65.591,34.138 C65.179,32.182 64.275,29.893 60.408,28.084 C55.088,26.089 52.769,30.423 52.769,30.423 C51.510,32.531 49.768,36.821 58.089,38.679 C58.089,38.679 59.041,39.300 58.498,40.078 C57.956,40.855 52.224,48.998 51.269,51.475 C50.314,53.952 50.723,45.696 40.357,41.568 C29.990,37.440 27.183,50.590 28.626,54.777 C30.529,60.300 37.492,64.409 48.541,66.748 C51.815,68.124 54.133,67.023 54.133,67.023 C54.133,67.023 62.034,64.192 63.818,54.365 C64.227,47.623 63.457,42.031 63.772,41.362 C64.002,40.876 64.002,40.876 64.727,40.124 L64.727,40.124 Z"/>
<path fill="url(#PSgrad_0)"
 d="M64.727,40.124 C65.512,39.310 65.911,35.656 65.591,34.138 C65.179,32.182 64.275,29.893 60.408,28.084 C55.088,26.089 52.769,30.423 52.769,30.423 C51.510,32.531 49.768,36.821 58.089,38.679 C58.089,38.679 59.041,39.300 58.498,40.078 C57.956,40.855 52.224,48.998 51.269,51.475 C50.314,53.952 50.723,45.696 40.357,41.568 C29.990,37.440 27.183,50.590 28.626,54.777 C30.529,60.300 37.492,64.409 48.541,66.748 C51.815,68.124 54.133,67.023 54.133,67.023 C54.133,67.023 62.034,64.192 63.818,54.365 C64.227,47.623 63.457,42.031 63.772,41.362 C64.002,40.876 64.002,40.876 64.727,40.124 L64.727,40.124 Z"/>
</svg>
