<svg
 xmlns="http://www.w3.org/2000/svg"
 xmlns:xlink="http://www.w3.org/1999/xlink"
 width="96px" height="96px">
<defs>
<linearGradient id="PSgrad_0" x1="0%" x2="0%" y1="0%" y2="100%">
  <stop offset="0%" stop-color="rgb(103,213,205)" stop-opacity="1" />
  <stop offset="99%" stop-color="rgb(78,170,166)" stop-opacity="1" />
</linearGradient>

</defs>
<path fill-rule="evenodd"  fill="rgb(229, 250, 249)"
 d="M36.015,0.015 L59.985,0.015 C79.868,0.015 95.985,16.132 95.985,36.015 L95.985,59.985 C95.985,79.868 79.868,95.985 59.985,95.985 L36.015,95.985 C16.132,95.985 0.015,79.868 0.015,59.985 L0.015,36.015 C0.015,16.132 16.132,0.015 36.015,0.015 Z"/>
<path fill-rule="evenodd"  fill="rgb(229, 250, 249)"
 d="M52.810,25.977 L36.543,25.977 C34.307,25.977 32.497,27.841 32.497,30.120 L32.476,63.261 C32.476,65.539 34.286,67.403 36.523,67.403 L60.944,67.403 C63.180,67.403 65.010,65.539 65.010,63.261 L65.010,38.405 L52.810,25.977 ZM56.877,59.118 L40.610,59.118 L40.610,54.975 L56.877,54.975 L56.877,59.118 ZM56.877,50.833 L40.610,50.833 L40.610,46.690 L56.877,46.690 L56.877,50.833 ZM50.777,40.476 L50.777,29.084 L61.960,40.476 L50.777,40.476 Z"/>
<path fill="url(#PSgrad_0)"
 d="M52.810,25.977 L36.543,25.977 C34.307,25.977 32.497,27.841 32.497,30.120 L32.476,63.261 C32.476,65.539 34.286,67.403 36.523,67.403 L60.944,67.403 C63.180,67.403 65.010,65.539 65.010,63.261 L65.010,38.405 L52.810,25.977 ZM56.877,59.118 L40.610,59.118 L40.610,54.975 L56.877,54.975 L56.877,59.118 ZM56.877,50.833 L40.610,50.833 L40.610,46.690 L56.877,46.690 L56.877,50.833 ZM50.777,40.476 L50.777,29.084 L61.960,40.476 L50.777,40.476 Z"/>
</svg>
