<svg
 xmlns="http://www.w3.org/2000/svg"
 xmlns:xlink="http://www.w3.org/1999/xlink"
 width="96px" height="96px">
<defs>
<linearGradient id="PSgrad_0" x1="0%" x2="0%" y1="0%" y2="100%">
  <stop offset="0%" stop-color="rgb(103,213,205)" stop-opacity="1" />
  <stop offset="99%" stop-color="rgb(78,170,166)" stop-opacity="1" />
</linearGradient>

</defs>
<path fill-rule="evenodd"  fill="rgb(229, 250, 249)"
 d="M36.015,0.015 L59.985,0.015 C79.868,0.015 95.985,16.132 95.985,36.015 L95.985,59.985 C95.985,79.868 79.868,95.985 59.985,95.985 L36.015,95.985 C16.132,95.985 0.015,79.868 0.015,59.985 L0.015,36.015 C0.015,16.132 16.132,0.015 36.015,0.015 Z"/>
<path fill-rule="evenodd"  fill="rgb(229, 250, 249)"
 d="M68.344,40.249 L62.470,46.121 C60.616,47.974 57.611,47.974 55.757,46.121 L49.883,40.249 C48.030,38.396 48.030,35.392 49.883,33.539 L55.757,27.666 C57.611,25.814 60.616,25.814 62.470,27.666 L68.344,33.539 C70.198,35.392 70.198,38.396 68.344,40.249 L68.344,40.249 ZM42.323,45.786 L34.008,45.786 C31.390,45.786 29.265,43.662 29.265,41.045 L29.265,32.744 C29.265,30.116 31.390,27.991 34.008,27.991 L42.312,27.991 C44.940,27.991 47.066,30.116 47.066,32.733 L47.066,41.034 C47.066,43.662 44.940,45.786 42.323,45.786 L42.323,45.786 ZM63.266,66.722 L54.962,66.722 C52.344,66.722 50.218,64.597 50.218,61.980 L50.218,53.679 C50.218,51.062 52.344,48.937 54.962,48.937 L63.266,48.937 C65.883,48.937 68.009,51.062 68.009,53.679 L68.009,61.980 C68.009,64.597 65.883,66.722 63.266,66.722 L63.266,66.722 ZM42.323,66.722 L34.008,66.722 C31.390,66.722 29.265,64.597 29.265,61.980 L29.265,53.679 C29.265,51.052 31.390,48.927 34.008,48.927 L42.312,48.927 C44.930,48.927 47.056,51.052 47.056,53.669 L47.056,61.970 C47.061,63.228 46.565,64.437 45.677,65.329 C44.789,66.221 43.582,66.722 42.323,66.722 L42.323,66.722 Z"/>
<path fill="url(#PSgrad_0)"
 d="M68.344,40.249 L62.470,46.121 C60.616,47.974 57.611,47.974 55.757,46.121 L49.883,40.249 C48.030,38.396 48.030,35.392 49.883,33.539 L55.757,27.666 C57.611,25.814 60.616,25.814 62.470,27.666 L68.344,33.539 C70.198,35.392 70.198,38.396 68.344,40.249 L68.344,40.249 ZM42.323,45.786 L34.008,45.786 C31.390,45.786 29.265,43.662 29.265,41.045 L29.265,32.744 C29.265,30.116 31.390,27.991 34.008,27.991 L42.312,27.991 C44.940,27.991 47.066,30.116 47.066,32.733 L47.066,41.034 C47.066,43.662 44.940,45.786 42.323,45.786 L42.323,45.786 ZM63.266,66.722 L54.962,66.722 C52.344,66.722 50.218,64.597 50.218,61.980 L50.218,53.679 C50.218,51.062 52.344,48.937 54.962,48.937 L63.266,48.937 C65.883,48.937 68.009,51.062 68.009,53.679 L68.009,61.980 C68.009,64.597 65.883,66.722 63.266,66.722 L63.266,66.722 ZM42.323,66.722 L34.008,66.722 C31.390,66.722 29.265,64.597 29.265,61.980 L29.265,53.679 C29.265,51.052 31.390,48.927 34.008,48.927 L42.312,48.927 C44.930,48.927 47.056,51.052 47.056,53.669 L47.056,61.970 C47.061,63.228 46.565,64.437 45.677,65.329 C44.789,66.221 43.582,66.722 42.323,66.722 L42.323,66.722 Z"/>
</svg>
