<svg
 xmlns="http://www.w3.org/2000/svg"
 xmlns:xlink="http://www.w3.org/1999/xlink"
 width="96px" height="96px">
<defs>
<linearGradient id="PSgrad_0" x1="0%" x2="0%" y1="0%" y2="100%">
  <stop offset="0%" stop-color="rgb(106,143,214)" stop-opacity="1" />
  <stop offset="99%" stop-color="rgb(78,110,170)" stop-opacity="1" />
</linearGradient>

</defs>
<path fill-rule="evenodd"  fill="rgb(224, 237, 251)"
 d="M36.015,0.015 L59.985,0.015 C79.868,0.015 95.985,16.132 95.985,36.015 L95.985,59.985 C95.985,79.868 79.868,95.985 59.985,95.985 L36.015,95.985 C16.132,95.985 0.015,79.868 0.015,59.985 L0.015,36.015 C0.015,16.132 16.132,0.015 36.015,0.015 Z"/>
<path fill-rule="evenodd"  fill="rgb(229, 250, 249)"
 d="M65.200,41.196 C63.594,42.800 61.506,43.698 59.226,43.698 C58.263,43.698 57.363,43.538 56.464,43.249 L56.015,43.088 L43.778,55.313 L43.939,55.730 C44.935,58.811 44.131,62.244 41.883,64.490 C40.277,66.094 38.158,66.993 35.846,66.993 C34.529,66.993 33.276,66.736 32.120,66.191 C31.895,66.094 31.767,65.870 31.703,65.645 C31.639,65.420 31.735,65.164 31.895,65.003 L36.649,60.190 L33.887,57.431 L29.069,62.244 C28.941,62.372 28.684,62.468 28.427,62.437 C28.170,62.405 27.977,62.244 27.881,61.987 C26.436,58.779 27.142,54.928 29.647,52.426 C31.895,50.148 35.300,49.345 38.318,50.308 L38.768,50.468 L51.101,38.179 L50.940,37.730 C50.009,34.714 50.812,31.345 53.060,29.099 C54.634,27.495 56.753,26.596 59.065,26.596 C60.286,26.596 61.538,26.821 62.630,27.334 C62.887,27.431 63.016,27.623 63.080,27.880 C63.144,28.072 63.080,28.329 62.887,28.521 L58.006,33.398 L60.768,36.158 L65.681,31.249 C65.810,31.120 66.067,30.992 66.324,31.056 C66.581,31.056 66.773,31.281 66.870,31.473 C68.411,34.778 67.769,38.629 65.200,41.196 ZM49.945,28.008 L49.848,28.008 C47.504,28.169 45.255,29.163 43.586,30.767 L43.553,30.800 C42.654,31.794 41.787,32.853 41.434,33.463 L41.177,33.912 L41.113,33.976 C40.888,34.490 40.856,35.035 41.048,35.484 L41.113,35.645 L44.549,39.014 C44.838,39.302 44.838,39.719 44.549,40.008 L40.695,43.762 C40.567,43.923 40.342,44.019 40.149,44.019 C39.957,44.019 39.764,43.891 39.571,43.827 L36.199,40.554 L35.653,40.008 L32.345,43.217 C32.056,43.506 31.542,43.506 31.253,43.217 L26.371,38.500 C26.275,38.340 26.179,38.212 26.179,37.987 C26.179,37.762 26.211,37.634 26.371,37.473 L34.625,29.612 C38.736,25.634 44.806,24.447 50.170,26.596 L50.233,26.596 C50.651,26.821 50.812,27.206 50.651,27.559 C50.490,27.848 50.233,28.008 49.945,28.008 ZM54.280,50.821 C54.537,50.532 54.987,50.532 55.276,50.821 L65.521,61.089 C65.617,61.185 65.714,61.378 65.714,61.602 C65.714,61.827 65.681,61.955 65.521,62.116 L61.731,65.870 C61.571,65.998 61.442,66.062 61.217,66.062 C60.993,66.062 60.864,66.030 60.703,65.870 L50.458,55.602 C50.330,55.506 50.266,55.281 50.266,55.089 C50.266,54.864 50.298,54.736 50.458,54.575 L54.280,50.821 Z"/>
<path fill="url(#PSgrad_0)"
 d="M65.200,41.196 C63.594,42.800 61.506,43.698 59.226,43.698 C58.263,43.698 57.363,43.538 56.464,43.249 L56.015,43.088 L43.778,55.313 L43.939,55.730 C44.935,58.811 44.131,62.244 41.883,64.490 C40.277,66.094 38.158,66.993 35.846,66.993 C34.529,66.993 33.276,66.736 32.120,66.191 C31.895,66.094 31.767,65.870 31.703,65.645 C31.639,65.420 31.735,65.164 31.895,65.003 L36.649,60.190 L33.887,57.431 L29.069,62.244 C28.941,62.372 28.684,62.468 28.427,62.437 C28.170,62.405 27.977,62.244 27.881,61.987 C26.436,58.779 27.142,54.928 29.647,52.426 C31.895,50.148 35.300,49.345 38.318,50.308 L38.768,50.468 L51.101,38.179 L50.940,37.730 C50.009,34.714 50.812,31.345 53.060,29.099 C54.634,27.495 56.753,26.596 59.065,26.596 C60.286,26.596 61.538,26.821 62.630,27.334 C62.887,27.431 63.016,27.623 63.080,27.880 C63.144,28.072 63.080,28.329 62.887,28.521 L58.006,33.398 L60.768,36.158 L65.681,31.249 C65.810,31.120 66.067,30.992 66.324,31.056 C66.581,31.056 66.773,31.281 66.870,31.473 C68.411,34.778 67.769,38.629 65.200,41.196 ZM49.945,28.008 L49.848,28.008 C47.504,28.169 45.255,29.163 43.586,30.767 L43.553,30.800 C42.654,31.794 41.787,32.853 41.434,33.463 L41.177,33.912 L41.113,33.976 C40.888,34.490 40.856,35.035 41.048,35.484 L41.113,35.645 L44.549,39.014 C44.838,39.302 44.838,39.719 44.549,40.008 L40.695,43.762 C40.567,43.923 40.342,44.019 40.149,44.019 C39.957,44.019 39.764,43.891 39.571,43.827 L36.199,40.554 L35.653,40.008 L32.345,43.217 C32.056,43.506 31.542,43.506 31.253,43.217 L26.371,38.500 C26.275,38.340 26.179,38.212 26.179,37.987 C26.179,37.762 26.211,37.634 26.371,37.473 L34.625,29.612 C38.736,25.634 44.806,24.447 50.170,26.596 L50.233,26.596 C50.651,26.821 50.812,27.206 50.651,27.559 C50.490,27.848 50.233,28.008 49.945,28.008 ZM54.280,50.821 C54.537,50.532 54.987,50.532 55.276,50.821 L65.521,61.089 C65.617,61.185 65.714,61.378 65.714,61.602 C65.714,61.827 65.681,61.955 65.521,62.116 L61.731,65.870 C61.571,65.998 61.442,66.062 61.217,66.062 C60.993,66.062 60.864,66.030 60.703,65.870 L50.458,55.602 C50.330,55.506 50.266,55.281 50.266,55.089 C50.266,54.864 50.298,54.736 50.458,54.575 L54.280,50.821 Z"/>
</svg>
