<svg
 xmlns="http://www.w3.org/2000/svg"
 xmlns:xlink="http://www.w3.org/1999/xlink"
 width="96px" height="96px">
<defs>
<linearGradient id="PSgrad_0" x1="0%" x2="0%" y1="0%" y2="100%">
  <stop offset="0%" stop-color="rgb(245,191,101)" stop-opacity="1" />
  <stop offset="99%" stop-color="rgb(240,152,58)" stop-opacity="1" />
</linearGradient>

</defs>
<path fill-rule="evenodd"  fill="rgb(252, 237, 215)"
 d="M36.015,0.015 L59.985,0.015 C79.868,0.015 95.985,16.132 95.985,36.015 L95.985,59.985 C95.985,79.868 79.868,95.985 59.985,95.985 L36.015,95.985 C16.132,95.985 0.015,79.868 0.015,59.985 L0.015,36.015 C0.015,16.132 16.132,0.015 36.015,0.015 Z"/>
<path fill-rule="evenodd"  fill="rgb(229, 250, 249)"
 d="M33.175,33.961 L36.658,29.782 L60.342,29.782 L63.825,33.961 L33.175,33.961 ZM54.073,53.466 L54.073,59.039 L42.927,59.039 L42.927,53.466 L34.568,53.466 L47.543,39.944 C48.071,39.392 48.932,39.393 49.457,39.941 L62.432,53.466 L54.073,53.466 ZM67.230,34.193 L63.206,28.157 C62.780,27.518 61.813,26.995 61.050,26.995 L35.950,26.995 C35.202,26.995 34.221,27.516 33.793,28.157 L29.770,34.193 C29.343,34.832 28.995,35.980 28.995,36.750 L28.995,63.231 C28.995,64.765 30.238,66.005 31.769,66.005 L65.231,66.005 C66.751,66.005 68.005,64.763 68.005,63.231 L68.005,36.750 C68.005,35.966 67.658,34.833 67.230,34.193 "/>
<path fill="url(#PSgrad_0)"
 d="M33.175,33.961 L36.658,29.782 L60.342,29.782 L63.825,33.961 L33.175,33.961 ZM54.073,53.466 L54.073,59.039 L42.927,59.039 L42.927,53.466 L34.568,53.466 L47.543,39.944 C48.071,39.392 48.932,39.393 49.457,39.941 L62.432,53.466 L54.073,53.466 ZM67.230,34.193 L63.206,28.157 C62.780,27.518 61.813,26.995 61.050,26.995 L35.950,26.995 C35.202,26.995 34.221,27.516 33.793,28.157 L29.770,34.193 C29.343,34.832 28.995,35.980 28.995,36.750 L28.995,63.231 C28.995,64.765 30.238,66.005 31.769,66.005 L65.231,66.005 C66.751,66.005 68.005,64.763 68.005,63.231 L68.005,36.750 C68.005,35.966 67.658,34.833 67.230,34.193 "/>
</svg>
