<svg
 xmlns="http://www.w3.org/2000/svg"
 xmlns:xlink="http://www.w3.org/1999/xlink"
 width="96px" height="96px">
<defs>
<linearGradient id="PSgrad_0" x1="0%" x2="0%" y1="0%" y2="100%">
  <stop offset="0%" stop-color="rgb(240,153,132)" stop-opacity="1" />
  <stop offset="99%" stop-color="rgb(236,100,82)" stop-opacity="1" />
</linearGradient>

</defs>
<path fill-rule="evenodd"  fill="rgb(251, 236, 233)"
 d="M36.015,0.015 L59.985,0.015 C79.868,0.015 95.985,16.132 95.985,36.015 L95.985,59.985 C95.985,79.868 79.868,95.985 59.985,95.985 L36.015,95.985 C16.132,95.985 0.015,79.868 0.015,59.985 L0.015,36.015 C0.015,16.132 16.132,0.015 36.015,0.015 Z"/>
<path fill-rule="evenodd"  fill="rgb(229, 250, 249)"
 d="M69.411,65.624 C70.176,66.390 70.176,67.636 69.411,68.403 C68.927,68.887 68.259,69.066 67.639,68.944 L48.936,68.944 C48.451,68.975 47.964,68.997 47.472,68.997 C35.060,68.997 24.998,58.923 24.998,46.496 C24.998,34.070 35.060,23.996 47.472,23.996 C59.885,23.996 69.947,34.070 69.947,46.496 C69.947,51.987 67.980,57.017 64.716,60.923 L69.411,65.624 ZM54.881,46.654 C55.963,46.654 56.843,45.778 56.843,44.690 C56.843,43.607 55.967,42.725 54.881,42.725 L50.277,42.725 L55.369,37.627 C56.135,36.861 56.135,35.620 55.369,34.853 C54.603,34.087 53.364,34.087 52.598,34.853 L47.530,39.932 L42.457,34.858 C41.691,34.091 40.451,34.091 39.686,34.858 C38.920,35.625 38.920,36.865 39.686,37.632 L44.778,42.730 L40.246,42.730 C39.164,42.730 38.283,43.607 38.283,44.695 C38.283,45.778 39.159,46.659 40.246,46.659 L45.606,46.659 L45.606,49.405 L40.246,49.405 C39.164,49.405 38.283,50.281 38.283,51.369 C38.283,52.452 39.159,53.334 40.246,53.334 L45.606,53.334 L45.606,59.428 C45.606,60.511 46.482,61.393 47.568,61.393 C48.650,61.393 49.530,60.516 49.530,59.428 L49.530,53.334 L54.890,53.334 C55.972,53.334 56.853,52.457 56.853,51.369 C56.853,50.286 55.977,49.405 54.890,49.405 L49.530,49.405 L49.530,46.654 L54.881,46.654 Z"/>
<path fill="url(#PSgrad_0)"
 d="M69.411,65.624 C70.176,66.390 70.176,67.636 69.411,68.403 C68.927,68.887 68.259,69.066 67.639,68.944 L48.936,68.944 C48.451,68.975 47.964,68.997 47.472,68.997 C35.060,68.997 24.998,58.923 24.998,46.496 C24.998,34.070 35.060,23.996 47.472,23.996 C59.885,23.996 69.947,34.070 69.947,46.496 C69.947,51.987 67.980,57.017 64.716,60.923 L69.411,65.624 ZM54.881,46.654 C55.963,46.654 56.843,45.778 56.843,44.690 C56.843,43.607 55.967,42.725 54.881,42.725 L50.277,42.725 L55.369,37.627 C56.135,36.861 56.135,35.620 55.369,34.853 C54.603,34.087 53.364,34.087 52.598,34.853 L47.530,39.932 L42.457,34.858 C41.691,34.091 40.451,34.091 39.686,34.858 C38.920,35.625 38.920,36.865 39.686,37.632 L44.778,42.730 L40.246,42.730 C39.164,42.730 38.283,43.607 38.283,44.695 C38.283,45.778 39.159,46.659 40.246,46.659 L45.606,46.659 L45.606,49.405 L40.246,49.405 C39.164,49.405 38.283,50.281 38.283,51.369 C38.283,52.452 39.159,53.334 40.246,53.334 L45.606,53.334 L45.606,59.428 C45.606,60.511 46.482,61.393 47.568,61.393 C48.650,61.393 49.530,60.516 49.530,59.428 L49.530,53.334 L54.890,53.334 C55.972,53.334 56.853,52.457 56.853,51.369 C56.853,50.286 55.977,49.405 54.890,49.405 L49.530,49.405 L49.530,46.654 L54.881,46.654 Z"/>
</svg>
