<svg
 xmlns="http://www.w3.org/2000/svg"
 xmlns:xlink="http://www.w3.org/1999/xlink"
 width="96px" height="96px">
<defs>
<linearGradient id="PSgrad_0" x1="0%" x2="0%" y1="0%" y2="100%">
  <stop offset="0%" stop-color="rgb(106,214,157)" stop-opacity="1" />
  <stop offset="99%" stop-color="rgb(69,168,116)" stop-opacity="1" />
</linearGradient>

</defs>
<path fill-rule="evenodd"  fill="rgb(225, 252, 238)"
 d="M36.015,0.015 L59.985,0.015 C79.868,0.015 95.985,16.132 95.985,36.015 L95.985,59.985 C95.985,79.868 79.868,95.985 59.985,95.985 L36.015,95.985 C16.132,95.985 0.015,79.868 0.015,59.985 L0.015,36.015 C0.015,16.132 16.132,0.015 36.015,0.015 Z"/>
<path fill-rule="evenodd"  fill="rgb(225, 252, 238)"
 d="M48.693,44.020 L53.413,44.020 L53.413,46.376 L48.693,46.376 L48.693,44.020 ZM48.693,48.735 L53.413,48.735 L53.413,51.874 L48.693,51.874 L48.693,48.735 ZM48.693,54.228 L53.413,54.228 L53.413,57.376 L48.693,57.376 L48.693,54.228 ZM67.999,41.091 L50.780,26.795 C49.198,25.476 46.629,25.476 45.047,26.795 L27.831,41.091 C26.246,42.412 26.246,44.542 27.831,45.860 L31.961,45.860 L31.961,63.513 C31.961,66.187 34.102,68.355 36.748,68.355 L59.083,68.355 C61.729,68.355 63.872,66.187 63.872,63.513 L63.872,45.860 L67.999,45.860 C69.587,44.542 69.587,42.411 67.999,41.091 L67.999,41.091 ZM57.215,59.731 L44.361,59.731 L44.361,57.375 L46.097,57.375 L46.097,52.853 C46.036,52.791 45.986,52.730 45.930,52.665 L44.449,54.427 C43.933,53.666 43.427,52.953 42.951,52.291 L42.951,60.514 L40.467,60.514 L40.467,52.197 C39.953,53.708 39.322,55.176 38.579,56.587 C38.343,55.581 38.029,54.538 37.635,53.448 C38.505,52.136 39.284,50.562 39.972,48.735 L37.752,48.735 L37.752,46.377 L40.467,46.377 L40.467,43.838 C39.690,43.913 38.893,43.970 38.100,44.021 C38.028,43.101 37.900,42.318 37.752,41.667 C39.863,41.562 42.232,41.309 44.839,40.879 L45.442,43.238 C44.612,43.434 43.780,43.604 42.948,43.752 L42.948,46.379 L45.505,46.379 L45.505,48.735 L42.948,48.735 L42.948,50.783 L43.628,50.108 C44.219,50.732 45.001,51.598 45.926,52.666 L46.094,52.464 L46.094,41.667 L56.007,41.667 L56.007,57.376 L57.211,57.376 L57.211,59.732 L57.215,59.732 L57.215,59.731 Z"/>
<path fill="url(#PSgrad_0)"
 d="M48.693,44.020 L53.413,44.020 L53.413,46.376 L48.693,46.376 L48.693,44.020 ZM48.693,48.735 L53.413,48.735 L53.413,51.874 L48.693,51.874 L48.693,48.735 ZM48.693,54.228 L53.413,54.228 L53.413,57.376 L48.693,57.376 L48.693,54.228 ZM67.999,41.091 L50.780,26.795 C49.198,25.476 46.629,25.476 45.047,26.795 L27.831,41.091 C26.246,42.412 26.246,44.542 27.831,45.860 L31.961,45.860 L31.961,63.513 C31.961,66.187 34.102,68.355 36.748,68.355 L59.083,68.355 C61.729,68.355 63.872,66.187 63.872,63.513 L63.872,45.860 L67.999,45.860 C69.587,44.542 69.587,42.411 67.999,41.091 L67.999,41.091 ZM57.215,59.731 L44.361,59.731 L44.361,57.375 L46.097,57.375 L46.097,52.853 C46.036,52.791 45.986,52.730 45.930,52.665 L44.449,54.427 C43.933,53.666 43.427,52.953 42.951,52.291 L42.951,60.514 L40.467,60.514 L40.467,52.197 C39.953,53.708 39.322,55.176 38.579,56.587 C38.343,55.581 38.029,54.538 37.635,53.448 C38.505,52.136 39.284,50.562 39.972,48.735 L37.752,48.735 L37.752,46.377 L40.467,46.377 L40.467,43.838 C39.690,43.913 38.893,43.970 38.100,44.021 C38.028,43.101 37.900,42.318 37.752,41.667 C39.863,41.562 42.232,41.309 44.839,40.879 L45.442,43.238 C44.612,43.434 43.780,43.604 42.948,43.752 L42.948,46.379 L45.505,46.379 L45.505,48.735 L42.948,48.735 L42.948,50.783 L43.628,50.108 C44.219,50.732 45.001,51.598 45.926,52.666 L46.094,52.464 L46.094,41.667 L56.007,41.667 L56.007,57.376 L57.211,57.376 L57.211,59.732 L57.215,59.732 L57.215,59.731 Z"/>
</svg>
