<svg
 xmlns="http://www.w3.org/2000/svg"
 xmlns:xlink="http://www.w3.org/1999/xlink"
 width="96px" height="96px">
<defs>
<linearGradient id="PSgrad_0" x1="0%" x2="0%" y1="0%" y2="100%">
  <stop offset="0%" stop-color="rgb(214,106,106)" stop-opacity="1" />
  <stop offset="99%" stop-color="rgb(186,61,61)" stop-opacity="1" />
</linearGradient>

</defs>
<path fill-rule="evenodd"  fill="rgb(255, 231, 231)"
 d="M36.015,0.015 L59.985,0.015 C79.868,0.015 95.985,16.132 95.985,36.015 L95.985,59.985 C95.985,79.868 79.868,95.985 59.985,95.985 L36.015,95.985 C16.132,95.985 0.015,79.868 0.015,59.985 L0.015,36.015 C0.015,16.132 16.132,0.015 36.015,0.015 Z"/>
<path fill-rule="evenodd"  fill="rgb(229, 250, 249)"
 d="M51.810,26.140 L55.110,28.770 L59.337,28.475 C63.609,28.172 63.133,27.925 64.395,32.479 L65.519,36.551 L69.115,38.789 C72.733,41.054 72.498,40.575 70.841,45.003 L69.356,48.955 L70.944,52.872 C72.550,56.844 72.642,56.311 68.690,58.925 L65.163,61.246 L64.148,65.350 C63.110,69.500 63.494,69.127 58.775,68.915 L54.548,68.726 L51.311,71.443 C48.033,74.200 48.558,74.126 44.862,71.179 L41.564,68.549 L37.344,68.847 C33.071,69.150 33.544,69.391 32.285,64.834 L31.156,60.765 L27.569,58.518 C23.935,56.260 24.176,56.741 25.839,52.311 L27.322,48.364 L25.733,44.444 C24.125,40.477 24.039,41.005 27.987,38.397 L31.506,36.070 L32.529,31.966 C33.559,27.813 33.186,28.189 37.911,28.401 L42.121,28.590 L45.367,25.862 C48.641,23.115 48.116,23.191 51.810,26.140 L51.810,26.140 ZM32.882,49.849 L32.882,53.956 C32.882,56.139 34.359,57.217 37.315,57.217 C40.377,57.217 41.911,56.019 41.911,53.635 L41.911,51.345 C41.911,50.542 41.688,49.832 41.237,49.207 C40.790,48.582 39.732,47.482 38.078,45.900 C37.189,45.011 36.741,44.232 36.741,43.567 L36.661,42.398 C36.661,41.718 36.902,41.383 37.372,41.383 C37.773,41.383 37.971,41.561 37.971,41.916 L37.971,45.218 L41.581,45.218 L41.581,42.100 C41.581,39.973 40.211,38.913 37.467,38.913 C34.410,38.913 32.882,40.076 32.882,42.409 L32.882,44.427 C32.882,45.103 33.088,45.716 33.501,46.272 C33.908,46.834 34.952,47.929 36.638,49.562 C37.513,50.439 37.948,51.202 37.948,51.852 L37.948,53.990 C37.948,54.397 37.708,54.603 37.234,54.603 C36.730,54.603 36.480,54.397 36.480,53.985 L36.480,49.849 L32.882,49.849 ZM51.170,57.062 L51.170,45.458 C51.170,43.409 49.845,42.383 47.176,42.383 C44.334,42.383 42.909,43.369 42.909,45.335 L42.909,48.250 L46.359,48.250 C46.359,48.043 46.342,47.731 46.301,47.324 C46.281,46.911 46.276,46.602 46.276,46.390 C46.276,45.229 46.508,44.644 46.978,44.644 C47.391,44.644 47.595,44.885 47.595,45.361 L47.595,47.522 C47.595,47.771 47.176,48.106 46.353,48.525 C44.919,49.253 43.964,49.866 43.494,50.353 C43.015,50.835 42.786,51.402 42.786,52.053 L42.786,54.987 C42.786,56.512 43.761,57.274 45.705,57.274 C46.975,57.274 47.741,57.016 48.010,56.506 L48.010,57.062 L51.170,57.062 ZM47.595,54.345 L47.595,50.588 C46.772,50.794 46.359,51.156 46.359,51.697 L46.359,54.345 C46.359,54.787 46.571,55.010 47.004,55.010 C47.397,55.010 47.595,54.787 47.595,54.345 L47.595,54.345 ZM55.615,57.062 L55.615,39.068 L52.048,39.068 L52.048,57.062 L55.615,57.062 ZM64.802,50.898 L64.802,45.335 C64.802,43.369 63.403,42.383 60.598,42.383 C57.817,42.383 56.435,43.409 56.435,45.458 L56.435,54.196 C56.435,56.248 57.817,57.274 60.598,57.274 C63.403,57.274 64.802,56.288 64.802,54.317 L64.802,51.356 L61.224,51.356 L61.224,54.277 C61.224,54.764 61.023,55.010 60.621,55.010 C60.220,55.010 60.019,54.764 60.019,54.277 L60.019,50.898 L64.802,50.898 ZM61.224,48.711 L61.224,45.361 C61.224,44.885 61.023,44.645 60.621,44.645 C60.220,44.645 60.019,44.885 60.019,45.361 L60.019,48.711 L61.224,48.711 ZM28.282,46.378 C28.282,46.378 28.434,44.702 28.781,42.842 C29.125,40.982 32.572,37.331 32.572,37.331 C32.572,37.331 27.193,40.621 26.763,41.214 C26.341,41.810 28.282,46.378 28.282,46.378 L28.282,46.378 Z"/>
<path fill="url(#PSgrad_0)"
 d="M51.810,26.140 L55.110,28.770 L59.337,28.475 C63.609,28.172 63.133,27.925 64.395,32.479 L65.519,36.551 L69.115,38.789 C72.733,41.054 72.498,40.575 70.841,45.003 L69.356,48.955 L70.944,52.872 C72.550,56.844 72.642,56.311 68.690,58.925 L65.163,61.246 L64.148,65.350 C63.110,69.500 63.494,69.127 58.775,68.915 L54.548,68.726 L51.311,71.443 C48.033,74.200 48.558,74.126 44.862,71.179 L41.564,68.549 L37.344,68.847 C33.071,69.150 33.544,69.391 32.285,64.834 L31.156,60.765 L27.569,58.518 C23.935,56.260 24.176,56.741 25.839,52.311 L27.322,48.364 L25.733,44.444 C24.125,40.477 24.039,41.005 27.987,38.397 L31.506,36.070 L32.529,31.966 C33.559,27.813 33.186,28.189 37.911,28.401 L42.121,28.590 L45.367,25.862 C48.641,23.115 48.116,23.191 51.810,26.140 L51.810,26.140 ZM32.882,49.849 L32.882,53.956 C32.882,56.139 34.359,57.217 37.315,57.217 C40.377,57.217 41.911,56.019 41.911,53.635 L41.911,51.345 C41.911,50.542 41.688,49.832 41.237,49.207 C40.790,48.582 39.732,47.482 38.078,45.900 C37.189,45.011 36.741,44.232 36.741,43.567 L36.661,42.398 C36.661,41.718 36.902,41.383 37.372,41.383 C37.773,41.383 37.971,41.561 37.971,41.916 L37.971,45.218 L41.581,45.218 L41.581,42.100 C41.581,39.973 40.211,38.913 37.467,38.913 C34.410,38.913 32.882,40.076 32.882,42.409 L32.882,44.427 C32.882,45.103 33.088,45.716 33.501,46.272 C33.908,46.834 34.952,47.929 36.638,49.562 C37.513,50.439 37.948,51.202 37.948,51.852 L37.948,53.990 C37.948,54.397 37.708,54.603 37.234,54.603 C36.730,54.603 36.480,54.397 36.480,53.985 L36.480,49.849 L32.882,49.849 ZM51.170,57.062 L51.170,45.458 C51.170,43.409 49.845,42.383 47.176,42.383 C44.334,42.383 42.909,43.369 42.909,45.335 L42.909,48.250 L46.359,48.250 C46.359,48.043 46.342,47.731 46.301,47.324 C46.281,46.911 46.276,46.602 46.276,46.390 C46.276,45.229 46.508,44.644 46.978,44.644 C47.391,44.644 47.595,44.885 47.595,45.361 L47.595,47.522 C47.595,47.771 47.176,48.106 46.353,48.525 C44.919,49.253 43.964,49.866 43.494,50.353 C43.015,50.835 42.786,51.402 42.786,52.053 L42.786,54.987 C42.786,56.512 43.761,57.274 45.705,57.274 C46.975,57.274 47.741,57.016 48.010,56.506 L48.010,57.062 L51.170,57.062 ZM47.595,54.345 L47.595,50.588 C46.772,50.794 46.359,51.156 46.359,51.697 L46.359,54.345 C46.359,54.787 46.571,55.010 47.004,55.010 C47.397,55.010 47.595,54.787 47.595,54.345 L47.595,54.345 ZM55.615,57.062 L55.615,39.068 L52.048,39.068 L52.048,57.062 L55.615,57.062 ZM64.802,50.898 L64.802,45.335 C64.802,43.369 63.403,42.383 60.598,42.383 C57.817,42.383 56.435,43.409 56.435,45.458 L56.435,54.196 C56.435,56.248 57.817,57.274 60.598,57.274 C63.403,57.274 64.802,56.288 64.802,54.317 L64.802,51.356 L61.224,51.356 L61.224,54.277 C61.224,54.764 61.023,55.010 60.621,55.010 C60.220,55.010 60.019,54.764 60.019,54.277 L60.019,50.898 L64.802,50.898 ZM61.224,48.711 L61.224,45.361 C61.224,44.885 61.023,44.645 60.621,44.645 C60.220,44.645 60.019,44.885 60.019,45.361 L60.019,48.711 L61.224,48.711 ZM28.282,46.378 C28.282,46.378 28.434,44.702 28.781,42.842 C29.125,40.982 32.572,37.331 32.572,37.331 C32.572,37.331 27.193,40.621 26.763,41.214 C26.341,41.810 28.282,46.378 28.282,46.378 L28.282,46.378 Z"/>
</svg>
