<svg
 xmlns="http://www.w3.org/2000/svg"
 xmlns:xlink="http://www.w3.org/1999/xlink"
 width="96px" height="96px">
<defs>
<linearGradient id="PSgrad_0" x1="0%" x2="0%" y1="0%" y2="100%">
  <stop offset="0%" stop-color="rgb(245,191,101)" stop-opacity="1" />
  <stop offset="99%" stop-color="rgb(240,152,58)" stop-opacity="1" />
</linearGradient>

</defs>
<path fill-rule="evenodd"  fill="rgb(252, 237, 215)"
 d="M36.015,0.015 L59.985,0.015 C79.868,0.015 95.985,16.132 95.985,36.015 L95.985,59.985 C95.985,79.868 79.868,95.985 59.985,95.985 L36.015,95.985 C16.132,95.985 0.015,79.868 0.015,59.985 L0.015,36.015 C0.015,16.132 16.132,0.015 36.015,0.015 Z"/>
<path fill-rule="evenodd"  fill="rgb(229, 250, 249)"
 d="M38.765,57.567 C39.187,57.982 39.187,58.654 38.765,59.068 L31.755,65.749 C31.334,66.164 30.651,66.164 30.229,65.749 C29.808,65.335 29.808,64.663 30.229,64.248 L37.239,57.567 C37.661,57.152 38.344,57.152 38.765,57.567 L38.765,57.567 ZM67.583,54.551 C68.009,53.651 67.893,52.574 67.279,51.763 L61.305,43.868 L64.454,34.569 C64.785,33.593 64.516,32.497 63.763,31.759 C63.011,31.022 61.910,30.775 60.940,31.126 L51.710,34.466 L43.694,28.653 C42.871,28.056 41.792,27.962 40.903,28.408 C40.011,28.855 39.460,29.768 39.471,30.772 L39.577,40.919 L31.427,46.862 C30.606,47.459 30.212,48.481 30.408,49.495 C30.518,50.051 30.796,50.552 31.188,50.937 C31.510,51.252 31.911,51.490 32.358,51.621 L41.675,54.309 L44.554,63.572 C44.694,64.016 44.940,64.412 45.262,64.727 C45.655,65.112 46.160,65.379 46.719,65.478 C47.737,65.653 48.750,65.238 49.331,64.405 L55.103,56.132 L65.249,56.031 C66.253,56.021 67.154,55.450 67.583,54.551 L67.583,54.551 Z"/>
<path fill="url(#PSgrad_0)"
 d="M38.765,57.567 C39.187,57.982 39.187,58.654 38.765,59.068 L31.755,65.749 C31.334,66.164 30.651,66.164 30.229,65.749 C29.808,65.335 29.808,64.663 30.229,64.248 L37.239,57.567 C37.661,57.152 38.344,57.152 38.765,57.567 L38.765,57.567 ZM67.583,54.551 C68.009,53.651 67.893,52.574 67.279,51.763 L61.305,43.868 L64.454,34.569 C64.785,33.593 64.516,32.497 63.763,31.759 C63.011,31.022 61.910,30.775 60.940,31.126 L51.710,34.466 L43.694,28.653 C42.871,28.056 41.792,27.962 40.903,28.408 C40.011,28.855 39.460,29.768 39.471,30.772 L39.577,40.919 L31.427,46.862 C30.606,47.459 30.212,48.481 30.408,49.495 C30.518,50.051 30.796,50.552 31.188,50.937 C31.510,51.252 31.911,51.490 32.358,51.621 L41.675,54.309 L44.554,63.572 C44.694,64.016 44.940,64.412 45.262,64.727 C45.655,65.112 46.160,65.379 46.719,65.478 C47.737,65.653 48.750,65.238 49.331,64.405 L55.103,56.132 L65.249,56.031 C66.253,56.021 67.154,55.450 67.583,54.551 L67.583,54.551 Z"/>
</svg>
