<svg
 xmlns="http://www.w3.org/2000/svg"
 xmlns:xlink="http://www.w3.org/1999/xlink"
 width="96px" height="96px">
<defs>
<linearGradient id="PSgrad_0" x1="0%" x2="0%" y1="0%" y2="100%">
  <stop offset="0%" stop-color="rgb(106,143,214)" stop-opacity="1" />
  <stop offset="99%" stop-color="rgb(78,110,170)" stop-opacity="1" />
</linearGradient>

</defs>
<path fill-rule="evenodd"  fill="rgb(224, 237, 251)"
 d="M36.015,0.015 L59.985,0.015 C79.868,0.015 95.985,16.132 95.985,36.015 L95.985,59.985 C95.985,79.868 79.868,95.985 59.985,95.985 L36.015,95.985 C16.132,95.985 0.015,79.868 0.015,59.985 L0.015,36.015 C0.015,16.132 16.132,0.015 36.015,0.015 Z"/>
<path fill-rule="evenodd"  fill="rgb(224, 237, 251)"
 d="M67.823,34.118 C65.235,31.022 61.672,29.317 56.727,29.317 C56.727,29.317 51.641,29.896 48.801,30.935 C45.986,29.896 43.286,29.344 40.767,29.344 C36.322,29.344 32.461,31.017 29.896,34.080 C27.117,37.399 26.048,42.056 26.965,46.869 C27.694,50.695 31.034,58.473 45.195,67.618 C45.476,67.810 46.845,68.683 48.500,68.683 C50.173,68.683 51.692,67.740 51.860,67.633 C66.638,58.514 70.087,50.706 70.826,46.866 C71.747,42.080 70.595,37.434 67.823,34.118 L67.823,34.118 ZM64.293,47.695 L60.481,47.695 L58.612,52.538 C58.478,52.886 58.132,53.107 57.760,53.084 C57.388,53.061 57.073,52.799 56.983,52.438 L55.591,46.846 L53.394,52.538 C53.264,52.876 52.930,53.094 52.573,53.085 C52.211,53.076 51.894,52.839 51.782,52.495 L48.882,43.576 L46.359,52.464 C46.259,52.817 45.945,53.067 45.578,53.085 C45.214,53.101 44.874,52.885 44.740,52.543 L42.365,46.491 L39.990,52.543 C39.972,52.590 39.942,52.627 39.917,52.669 C39.914,52.674 39.912,52.678 39.909,52.683 C39.789,52.872 39.608,53.003 39.399,53.055 C39.393,53.057 39.389,53.061 39.384,53.062 C39.333,53.074 39.282,53.077 39.231,53.080 C39.218,53.081 39.206,53.086 39.193,53.086 C39.192,53.086 39.190,53.085 39.189,53.085 C39.187,53.085 39.185,53.086 39.183,53.086 C39.078,53.086 38.977,53.063 38.882,53.027 L38.881,53.027 C38.880,53.026 38.880,53.026 38.880,53.026 C38.777,52.986 38.687,52.925 38.607,52.851 C38.598,52.841 38.590,52.832 38.581,52.822 C38.515,52.755 38.461,52.677 38.420,52.588 C38.414,52.577 38.410,52.566 38.405,52.554 C38.388,52.513 38.363,52.476 38.352,52.431 L37.214,47.695 L33.489,47.695 C33.017,47.695 32.633,47.312 32.633,46.840 C32.633,46.368 33.017,45.985 33.489,45.985 L37.888,45.985 C38.284,45.985 38.628,46.256 38.720,46.640 L39.384,49.402 L41.568,43.836 C41.696,43.508 42.013,43.293 42.365,43.293 C42.717,43.293 43.033,43.508 43.161,43.836 L45.406,49.556 L48.003,40.405 C48.106,40.043 48.433,39.791 48.810,39.784 C49.186,39.772 49.524,40.016 49.640,40.374 L52.665,49.676 L54.969,43.704 C55.103,43.356 55.448,43.136 55.820,43.159 C56.193,43.182 56.508,43.443 56.598,43.805 L57.990,49.397 L59.095,46.533 C59.223,46.203 59.540,45.985 59.894,45.985 L64.293,45.985 C64.765,45.985 65.148,46.368 65.148,46.840 C65.148,47.312 64.765,47.695 64.293,47.695 L64.293,47.695 Z"/>
<path fill="url(#PSgrad_0)"
 d="M67.823,34.118 C65.235,31.022 61.672,29.317 56.727,29.317 C56.727,29.317 51.641,29.896 48.801,30.935 C45.986,29.896 43.286,29.344 40.767,29.344 C36.322,29.344 32.461,31.017 29.896,34.080 C27.117,37.399 26.048,42.056 26.965,46.869 C27.694,50.695 31.034,58.473 45.195,67.618 C45.476,67.810 46.845,68.683 48.500,68.683 C50.173,68.683 51.692,67.740 51.860,67.633 C66.638,58.514 70.087,50.706 70.826,46.866 C71.747,42.080 70.595,37.434 67.823,34.118 L67.823,34.118 ZM64.293,47.695 L60.481,47.695 L58.612,52.538 C58.478,52.886 58.132,53.107 57.760,53.084 C57.388,53.061 57.073,52.799 56.983,52.438 L55.591,46.846 L53.394,52.538 C53.264,52.876 52.930,53.094 52.573,53.085 C52.211,53.076 51.894,52.839 51.782,52.495 L48.882,43.576 L46.359,52.464 C46.259,52.817 45.945,53.067 45.578,53.085 C45.214,53.101 44.874,52.885 44.740,52.543 L42.365,46.491 L39.990,52.543 C39.972,52.590 39.942,52.627 39.917,52.669 C39.914,52.674 39.912,52.678 39.909,52.683 C39.789,52.872 39.608,53.003 39.399,53.055 C39.393,53.057 39.389,53.061 39.384,53.062 C39.333,53.074 39.282,53.077 39.231,53.080 C39.218,53.081 39.206,53.086 39.193,53.086 C39.192,53.086 39.190,53.085 39.189,53.085 C39.187,53.085 39.185,53.086 39.183,53.086 C39.078,53.086 38.977,53.063 38.882,53.027 L38.881,53.027 C38.880,53.026 38.880,53.026 38.880,53.026 C38.777,52.986 38.687,52.925 38.607,52.851 C38.598,52.841 38.590,52.832 38.581,52.822 C38.515,52.755 38.461,52.677 38.420,52.588 C38.414,52.577 38.410,52.566 38.405,52.554 C38.388,52.513 38.363,52.476 38.352,52.431 L37.214,47.695 L33.489,47.695 C33.017,47.695 32.633,47.312 32.633,46.840 C32.633,46.368 33.017,45.985 33.489,45.985 L37.888,45.985 C38.284,45.985 38.628,46.256 38.720,46.640 L39.384,49.402 L41.568,43.836 C41.696,43.508 42.013,43.293 42.365,43.293 C42.717,43.293 43.033,43.508 43.161,43.836 L45.406,49.556 L48.003,40.405 C48.106,40.043 48.433,39.791 48.810,39.784 C49.186,39.772 49.524,40.016 49.640,40.374 L52.665,49.676 L54.969,43.704 C55.103,43.356 55.448,43.136 55.820,43.159 C56.193,43.182 56.508,43.443 56.598,43.805 L57.990,49.397 L59.095,46.533 C59.223,46.203 59.540,45.985 59.894,45.985 L64.293,45.985 C64.765,45.985 65.148,46.368 65.148,46.840 C65.148,47.312 64.765,47.695 64.293,47.695 L64.293,47.695 Z"/>
</svg>
