<svg  xmlns="http://www.w3.org/2000/svg" xmlns:xlink="http://www.w3.org/1999/xlink" width="120px" height="120px"><defs><linearGradient id="PSgrad_0" x1="0%" x2="0%" y1="0%" y2="100%">  <stop offset="0%" stop-color="rgb(106,143,214)" stop-opacity="1" />  <stop offset="99%" stop-color="rgb(78,110,170)" stop-opacity="1" /></linearGradient></defs><path fill-rule="evenodd"  fill="rgb(224, 237, 251)" d="M8.000,-0.000 L112.000,-0.000 C116.418,-0.000 120.000,3.582 120.000,8.000 L120.000,112.000 C120.000,116.418 116.418,120.000 112.000,120.000 L8.000,120.000 C3.582,120.000 -0.000,116.418 -0.000,112.000 L-0.000,8.000 C-0.000,3.582 3.582,-0.000 8.000,-0.000 Z"/><path fill-rule="evenodd"  fill="rgb(255, 255, 255)" d="M93.574,51.863 C93.574,55.016 91.365,57.118 91.365,57.118 C89.050,59.326 87.368,58.275 87.368,58.275 L87.368,45.241 C89.366,44.716 91.365,46.502 91.365,46.502 C93.259,48.184 93.784,50.076 93.574,51.863 ZM74.639,71.414 C67.907,67.419 63.804,63.530 63.804,63.530 L38.032,63.530 C38.032,63.530 32.667,65.002 32.667,58.380 L32.667,41.142 C32.772,41.142 32.351,36.202 36.874,36.202 L63.909,36.202 C63.909,36.202 72.746,29.264 76.848,28.318 C80.951,27.372 83.581,29.369 83.581,31.051 L83.581,70.047 C83.581,70.047 82.003,75.093 74.639,71.414 ZM60.333,93.487 L48.656,93.487 L38.978,67.630 L51.917,67.630 L60.333,93.487 Z"/><path fill="url(#PSgrad_0)" d="M93.574,51.863 C93.574,55.016 91.365,57.118 91.365,57.118 C89.050,59.326 87.368,58.275 87.368,58.275 L87.368,45.241 C89.366,44.716 91.365,46.502 91.365,46.502 C93.259,48.184 93.784,50.076 93.574,51.863 ZM74.639,71.414 C67.907,67.419 63.804,63.530 63.804,63.530 L38.032,63.530 C38.032,63.530 32.667,65.002 32.667,58.380 L32.667,41.142 C32.772,41.142 32.351,36.202 36.874,36.202 L63.909,36.202 C63.909,36.202 72.746,29.264 76.848,28.318 C80.951,27.372 83.581,29.369 83.581,31.051 L83.581,70.047 C83.581,70.047 82.003,75.093 74.639,71.414 ZM60.333,93.487 L48.656,93.487 L38.978,67.630 L51.917,67.630 L60.333,93.487 Z"/></svg>