<svg        xmlns="http://www.w3.org/2000/svg"        width="28px" height="28px">    <path fill-rule="evenodd" fill="rgb(255, 255, 255)"          d="M27.314,25.187 C26.419,26.738 25.434,27.243 25.434,27.243 C23.390,28.473 20.488,27.867 17.904,26.543 L16.102,25.537 C12.734,23.697 7.383,18.169 7.383,18.169 L7.383,18.169 C3.863,14.553 -3.097,5.256 1.839,1.296 C4.401,-0.759 6.185,-0.002 7.952,2.387 C9.718,4.776 11.057,6.353 8.951,8.468 C8.951,8.468 6.409,10.512 12.465,16.277 C17.674,21.201 19.443,19.097 19.443,19.097 C21.111,17.168 23.431,18.372 25.804,20.162 C27.823,21.685 28.454,23.206 27.314,25.187 ZM22.618,13.165 L21.067,13.165 C20.725,13.165 20.448,12.888 20.448,12.547 C20.448,12.206 20.725,11.930 21.067,11.930 L22.618,11.930 C22.960,11.930 23.236,12.206 23.236,12.547 C23.236,12.888 22.960,13.165 22.618,13.165 ZM22.618,10.843 L21.067,10.843 C20.725,10.843 20.448,10.566 20.448,10.225 C20.448,9.884 20.725,9.607 21.067,9.607 L22.618,9.607 C22.960,9.607 23.236,9.884 23.236,10.225 C23.236,10.566 22.960,10.843 22.618,10.843 ZM22.618,8.606 L21.067,8.606 C20.725,8.606 20.448,8.329 20.448,7.988 C20.448,7.647 20.725,7.370 21.067,7.370 L22.618,7.370 C22.960,7.370 23.236,7.647 23.236,7.988 C23.236,8.329 22.960,8.606 22.618,8.606 ZM19.182,15.624 L17.630,15.624 C17.289,15.624 17.012,15.347 17.012,15.006 C17.012,14.665 17.289,14.389 17.630,14.389 L19.182,14.389 C19.523,14.389 19.800,14.665 19.800,15.006 C19.800,15.347 19.523,15.624 19.182,15.624 ZM19.182,13.165 L17.630,13.165 C17.289,13.165 17.012,12.888 17.012,12.547 C17.012,12.206 17.289,11.930 17.630,11.930 L19.182,11.930 C19.523,11.930 19.800,12.206 19.800,12.547 C19.800,12.888 19.523,13.165 19.182,13.165 ZM19.182,10.843 L17.630,10.843 C17.289,10.843 17.012,10.566 17.012,10.225 C17.012,9.884 17.289,9.607 17.630,9.607 L19.182,9.607 C19.523,9.607 19.800,9.884 19.800,10.225 C19.800,10.566 19.523,10.843 19.182,10.843 ZM19.182,8.606 L17.630,8.606 C17.289,8.606 17.012,8.329 17.012,7.988 C17.012,7.647 17.289,7.370 17.630,7.370 L19.182,7.370 C19.523,7.370 19.800,7.647 19.800,7.988 C19.800,8.329 19.523,8.606 19.182,8.606 ZM15.745,13.165 L14.194,13.165 C13.852,13.165 13.575,12.888 13.575,12.547 C13.575,12.206 13.852,11.930 14.194,11.930 L15.745,11.930 C16.087,11.930 16.364,12.206 16.364,12.547 C16.364,12.888 16.087,13.165 15.745,13.165 ZM15.745,10.843 L14.194,10.843 C13.852,10.843 13.575,10.566 13.575,10.225 C13.575,9.884 13.852,9.607 14.194,9.607 L15.745,9.607 C16.087,9.607 16.364,9.884 16.364,10.225 C16.364,10.566 16.087,10.843 15.745,10.843 ZM15.745,8.606 L14.194,8.606 C13.852,8.606 13.575,8.329 13.575,7.988 C13.575,7.647 13.852,7.370 14.194,7.370 L15.745,7.370 C16.087,7.370 16.364,7.647 16.364,7.988 C16.364,8.329 16.087,8.606 15.745,8.606 Z"/></svg>