<svg  xmlns="http://www.w3.org/2000/svg" xmlns:xlink="http://www.w3.org/1999/xlink" width="53px" height="53px"><defs><filter id="Filter_0">                <feFlood flood-color="rgb(35, 45, 45)" flood-opacity="1" result="floodOut" />                <feComposite operator="atop" in="floodOut" in2="SourceGraphic" result="compOut" />                <feBlend mode="normal" in="compOut" in2="SourceGraphic" />            </filter></defs><g filter="url(#Filter_0)"><path fill-rule="evenodd"  stroke="rgb(153, 153, 153)" stroke-width="2px" stroke-linecap="butt" stroke-linejoin="miter" fill="none" d="M26.000,1.909 C39.305,1.909 50.091,12.695 50.091,26.000 C50.091,39.305 39.305,50.091 26.000,50.091 C12.695,50.091 1.909,39.305 1.909,26.000 C1.909,12.695 12.695,1.909 26.000,1.909 Z"/><path fill-rule="evenodd"  fill="rgb(153, 153, 153)" d="M18.159,16.938 C19.586,16.938 20.742,18.094 20.742,19.521 C20.742,20.947 19.586,22.104 18.159,22.104 C16.732,22.104 15.576,20.947 15.576,19.521 C15.576,18.094 16.732,16.938 18.159,16.938 Z"/><path fill-rule="evenodd"  fill="rgb(153, 153, 153)" d="M34.825,16.938 C36.252,16.938 37.408,18.094 37.408,19.521 C37.408,20.947 36.252,22.104 34.825,22.104 C33.398,22.104 32.242,20.947 32.242,19.521 C32.242,18.094 33.398,16.938 34.825,16.938 Z"/><path fill-rule="evenodd"  fill="rgb(153, 153, 153)" d="M13.576,29.854 C13.576,29.854 13.704,39.168 26.430,39.168 C39.156,39.168 39.408,29.854 39.408,29.854 L13.576,29.854 Z"/></g></svg>