<svg class="icon" viewBox="0 0 1024 1024" version="1.1" xmlns="http://www.w3.org/2000/svg" p-id="3480"
     width="32" height="32">
    <path d="M501.8 121.6h20.4v128h-20.4z" fill="#ffffff"/>
    <path d="M512 873.5H226.5c-32.6 0-59.1-26.4-59.1-59.1V285.7c0-32.6 26.4-59.1 59.1-59.1H512v646.9z" fill="#ffffff"/>
    <path d="M512 226.7h285.5c32.6 0 59.1 26.4 59.1 59.1v528.7c0 32.6-26.4 59.1-59.1 59.1H512V226.7z" fill="#ffffff"/>
    <path d="M640.1 448.2m-59.1 0a59.1 59.1 0 1 0 118.2 0 59.1 59.1 0 1 0-118.2 0Z" fill="#008FFF"/>
    <path d="M384.1 448.2m-59.1 0a59.1 59.1 0 1 0 118.2 0 59.1 59.1 0 1 0-118.2 0Z" fill="#008FFF"/>
    <path d="M512 113.2m-49 0a49 49 0 1 0 98 0 49 49 0 1 0-98 0Z" fill="#ffffff"/>
    <path d="M167.6 615.6l-54.4-27.2V458.1l54.4-29.2zM856.4 427.9l54.4 27.3v130.2l-54.4 29.2z" fill="#ffffff"/>
</svg>
