<?xml version="1.0" standalone="no"?><!DOCTYPE svg PUBLIC "-//W3C//DTD SVG 1.1//EN" "http://www.w3.org/Graphics/SVG/1.1/DTD/svg11.dtd"><svg t="1646291831391" class="icon" viewBox="0 0 1024 1024" version="1.1" xmlns="http://www.w3.org/2000/svg" p-id="1467" xmlns:xlink="http://www.w3.org/1999/xlink" width="32" height="32"><defs><style type="text/css"></style></defs><path d="M987.428571 914.285714c21.942857 0 36.571429 14.628571 36.571429 36.571429s-14.628571 36.571429-36.571429 36.571428H109.714286c-62.171429 0-109.714286-47.542857-109.714286-109.714285V73.142857c0-21.942857 14.628571-36.571429 36.571429-36.571428s36.571429 14.628571 36.571428 36.571428v804.571429c0 21.942857 14.628571 36.571429 36.571429 36.571428h877.714285zM256 73.142857c62.171429 0 109.714286 47.542857 109.714286 109.714286v585.142857c0 62.171429-47.542857 109.714286-109.714286 109.714286s-109.714286-47.542857-109.714286-109.714286V182.857143c0-62.171429 47.542857-109.714286 109.714286-109.714286z m0 73.142857c-21.942857 0-36.571429 14.628571-36.571429 36.571429v585.142857c0 21.942857 14.628571 36.571429 36.571429 36.571429s36.571429-14.628571 36.571429-36.571429V182.857143c0-21.942857-14.628571-36.571429-36.571429-36.571429z m292.571429 73.142857c62.171429 0 109.714286 47.542857 109.714285 109.714286v438.857143c0 62.171429-47.542857 109.714286-109.714285 109.714286s-109.714286-47.542857-109.714286-109.714286V329.142857c0-62.171429 47.542857-109.714286 109.714286-109.714286z m0 73.142858c-21.942857 0-36.571429 14.628571-36.571429 36.571428v438.857143c0 21.942857 14.628571 36.571429 36.571429 36.571429s36.571429-14.628571 36.571428-36.571429V329.142857c0-21.942857-14.628571-36.571429-36.571428-36.571428z m292.571428 109.714285c62.171429 0 109.714286 47.542857 109.714286 109.714286v256c0 62.171429-47.542857 109.714286-109.714286 109.714286s-109.714286-47.542857-109.714286-109.714286v-256c0-62.171429 47.542857-109.714286 109.714286-109.714286z m0 73.142857c-21.942857 0-36.571429 14.628571-36.571428 36.571429v256c0 21.942857 14.628571 36.571429 36.571428 36.571429s36.571429-14.628571 36.571429-36.571429v-256c0-21.942857-14.628571-36.571429-36.571429-36.571429z" fill="#62a033" p-id="1468"></path></svg>