<svg xmlns="http://www.w3.org/2000/svg" width="26.094" height="28.281" viewBox="0 0 26.094 28.281">
    <path fill="#4f82ea"
          d="M172.888,233.139a1.619,1.619,0,0,0-.334-1,0.981,0.981,0,0,0-1.6,0,1.619,1.619,0,0,0-.334,1v2.839a1.615,1.615,0,0,0,.334,1,0.981,0.981,0,0,0,1.6,0,1.615,1.615,0,0,0,.334-1v-2.839Zm-4.873,1.2a1.137,1.137,0,0,0-1.592.014,1.13,1.13,0,0,0-.333.788,1.119,1.119,0,0,0,.319.794l1.135,1.127a1.1,1.1,0,0,0,.369.253,1.134,1.134,0,0,0,.439.09,1.206,1.206,0,0,0,.439-0.083,1.219,1.219,0,0,0,.373-0.245,1.086,1.086,0,0,0,.247-0.372,1.062,1.062,0,0,0,.083-0.437,1.143,1.143,0,0,0-.09-0.437,1.058,1.058,0,0,0-.254-0.365Zm9.078,1.6a1.119,1.119,0,0,0,.319-0.794,1.13,1.13,0,0,0-.333-0.788,1.15,1.15,0,0,0-.794-0.332,1.136,1.136,0,0,0-.8.318l-1.135,1.127a1.1,1.1,0,0,0-.253.365,1.121,1.121,0,0,0-.091.437,1.191,1.191,0,0,0,.084.437,1.205,1.205,0,0,0,.246.372,1.09,1.09,0,0,0,.373.245,1.069,1.069,0,0,0,.439.083,1.135,1.135,0,0,0,.809-0.343ZM167,238.972a4,4,0,0,0-1.983-1.109,2.656,2.656,0,0,0-2.937,1.409,3.377,3.377,0,0,0-.674-0.21,2.631,2.631,0,0,0-2.429.708,2.592,2.592,0,0,0-.711,2.416,3.478,3.478,0,0,0,.211.672,2.624,2.624,0,0,0-.7.506,2.589,2.589,0,0,0-.71,2.416,3.964,3.964,0,0,0,1.113,1.975l0.043,0.04a2.825,2.825,0,0,0-.442.358,2.592,2.592,0,0,0-.711,2.416,3.982,3.982,0,0,0,1.113,1.976l5.616,5.587c2.292,2.279,5.874,2.387,8.941.791a7.632,7.632,0,0,0,7.2-2.254,11.389,11.389,0,0,0,3.169-7.57c0-2.658-1.255-4.912-3.39-7.039l-0.664-.675-0.011-.011a3.986,3.986,0,0,0-1.983-1.1,2.629,2.629,0,0,0-2.429.708,2.863,2.863,0,0,0-.362.44l-0.044-.043h0a3.969,3.969,0,0,0-1.983-1.1,2.629,2.629,0,0,0-2.429.708,2.675,2.675,0,0,0-.359.44Zm1.606,6.385-4.017-3.99a1.712,1.712,0,0,1-.493-0.82,0.351,0.351,0,0,1,.091-0.376,0.36,0.36,0,0,1,.38-0.09,1.713,1.713,0,0,1,.823.487l4.819,4.786,2.407,2.394a1.157,1.157,0,0,0,.37.246,1.131,1.131,0,0,0,.87,0,1.157,1.157,0,0,0,.37-0.246,1.12,1.12,0,0,0,0-1.6l-2.411-2.391a1.739,1.739,0,0,1-.493-0.82,0.35,0.35,0,0,1,.091-0.375,0.36,0.36,0,0,1,.38-0.091,1.733,1.733,0,0,1,.823.492l0,0,2.393,2.366,0.805,0.812,0.007,0.008a4.417,4.417,0,0,1,.794,4.066,10.335,10.335,0,0,1-2.8,5.111A9.029,9.029,0,0,1,172,256.738c-2.546,1.48-5.152,1.238-6.61-.206l-5.62-5.587a1.756,1.756,0,0,1-.493-0.82,0.351,0.351,0,0,1,.091-0.376,0.362,0.362,0,0,1,.381-0.09,1.75,1.75,0,0,1,.826.491l2.408,2.391a1.094,1.094,0,0,0,.37.26,1.171,1.171,0,0,0,.442.1,1.091,1.091,0,0,0,.442-0.084,1.107,1.107,0,0,0,.377-0.249,1.121,1.121,0,0,0,.25-0.375,1.1,1.1,0,0,0,.084-0.441,1.146,1.146,0,0,0-.1-0.437,1.1,1.1,0,0,0-.261-0.365l-2.408-2.4-2.407-2.39a1.739,1.739,0,0,1-.493-0.82,0.373,0.373,0,0,1,.471-0.47,1.766,1.766,0,0,1,.827.491l4.01,3.991a1.157,1.157,0,0,0,.37.246,1.143,1.143,0,0,0,.87,0,1.168,1.168,0,0,0,.37-0.246,1.125,1.125,0,0,0,.246-0.365,1.121,1.121,0,0,0,0-.866,1.136,1.136,0,0,0-.246-0.365l-4.018-3.991-1.2-1.195a1.739,1.739,0,0,1-.493-0.82,0.373,0.373,0,0,1,.471-0.47,1.738,1.738,0,0,1,.823.491l1.2,1.2L167,246.954a1.136,1.136,0,0,0,1.592-.015,1.126,1.126,0,0,0,.333-0.787,1.158,1.158,0,0,0-.319-0.795h0Zm9.724,9.709a5.977,5.977,0,0,1-2.65,1.6,12.552,12.552,0,0,0,3.165-6,6.623,6.623,0,0,0-1.41-6.1l-0.805-.816-0.008-.007a1.7,1.7,0,0,1-.485-0.806,0.343,0.343,0,0,1,.1-0.368,0.359,0.359,0,0,1,.38-0.09,1.7,1.7,0,0,1,.82.484l0.663,0.675,0.007,0.007c1.886,1.882,2.73,3.6,2.73,5.45a9.16,9.16,0,0,1-2.5,5.978h0Zm0,0"
          transform="translate(-157 -231.719)"/>
</svg>
