<svg  xmlns="http://www.w3.org/2000/svg" xmlns:xlink="http://www.w3.org/1999/xlink" width="40px" height="40px"><path fill-rule="evenodd"  fill="rgb(247, 196, 98)" d="M19.949,0.052 C30.966,0.052 39.897,8.983 39.897,20.000 C39.897,31.017 30.966,39.949 19.949,39.949 C8.931,39.949 0.000,31.017 0.000,20.000 C0.000,8.983 8.931,0.052 19.949,0.052 Z"/><path fill-rule="evenodd"  fill="rgb(255, 255, 255)" d="M13.771,30.718 L17.792,30.718 L17.792,25.228 L21.341,25.228 C22.545,25.228 23.562,25.078 24.395,24.778 C25.227,24.478 25.964,23.998 26.606,23.338 C27.890,22.018 28.532,20.288 28.532,18.148 C28.532,15.328 27.660,13.238 25.916,11.878 C25.275,11.378 24.603,11.043 23.902,10.873 C23.200,10.703 22.168,10.618 20.806,10.618 L13.771,10.618 L13.771,30.718 ZM20.522,13.738 C21.761,13.738 22.712,14.093 23.371,14.803 C24.031,15.513 24.361,16.528 24.361,17.848 C24.361,19.388 23.941,20.528 23.102,21.268 C22.502,21.828 21.551,22.108 20.251,22.108 L17.792,22.108 L17.792,13.738 L20.522,13.738 Z"/></svg>