<svg  xmlns="http://www.w3.org/2000/svg" xmlns:xlink="http://www.w3.org/1999/xlink" width="40px" height="40px"><path fill-rule="evenodd"  fill="rgb(98, 161, 247)" d="M19.949,0.052 C30.966,0.052 39.897,8.983 39.897,20.000 C39.897,31.017 30.966,39.949 19.949,39.949 C8.931,39.949 0.000,31.017 0.000,20.000 C0.000,8.983 8.931,0.052 19.949,0.052 Z"/><path fill-rule="evenodd"  fill="rgb(255, 255, 255)" d="M28.751,17.968 C28.893,17.988 28.999,18.108 29.000,18.251 L29.000,27.722 C28.995,27.769 28.980,27.813 28.953,27.852 C28.927,27.888 28.890,27.916 28.848,27.931 L28.692,27.991 C28.665,28.001 28.637,28.006 28.608,28.006 L11.392,28.006 C11.363,28.006 11.335,28.001 11.308,27.991 L11.153,27.931 C11.110,27.916 11.073,27.888 11.047,27.852 C11.020,27.813 11.005,27.769 11.000,27.722 L11.000,12.690 C11.000,12.534 11.134,12.408 11.299,12.408 L22.173,10.996 C22.183,10.995 22.193,10.994 22.203,10.994 L22.317,10.994 C22.378,10.994 22.437,11.020 22.479,11.064 C22.520,11.109 22.541,11.169 22.536,11.230 L22.536,16.642 C22.536,16.755 22.617,16.852 22.729,16.872 L28.751,17.968 ZM15.336,26.780 L17.007,26.780 C17.260,26.780 17.464,26.577 17.464,26.327 L17.464,24.830 C17.464,24.710 17.416,24.594 17.330,24.509 C17.245,24.424 17.128,24.377 17.007,24.377 L15.336,24.377 C15.215,24.377 15.098,24.424 15.013,24.509 C14.927,24.594 14.879,24.710 14.879,24.830 L14.879,26.327 C14.879,26.447 14.927,26.562 15.013,26.647 C15.098,26.732 15.215,26.780 15.336,26.780 L15.336,26.780 ZM23.043,26.780 L24.714,26.780 C24.835,26.780 24.951,26.732 25.037,26.647 C25.123,26.562 25.171,26.447 25.171,26.327 L25.171,24.830 C25.171,24.710 25.123,24.594 25.037,24.509 C24.951,24.424 24.835,24.377 24.714,24.377 L23.043,24.377 C22.921,24.377 22.805,24.424 22.719,24.509 C22.634,24.594 22.585,24.710 22.585,24.830 L22.585,26.327 C22.585,26.577 22.790,26.780 23.043,26.780 L23.043,26.780 ZM15.336,22.303 L17.007,22.303 C17.128,22.303 17.245,22.255 17.330,22.170 C17.416,22.085 17.464,21.970 17.464,21.850 L17.464,20.306 C17.464,20.056 17.259,19.853 17.007,19.853 L15.336,19.853 C15.083,19.853 14.879,20.056 14.879,20.306 L14.879,21.850 C14.879,22.100 15.084,22.303 15.336,22.303 L15.336,22.303 ZM15.336,17.826 L17.007,17.826 C17.259,17.826 17.464,17.624 17.464,17.374 L17.464,15.829 C17.464,15.709 17.416,15.594 17.330,15.509 C17.245,15.424 17.128,15.376 17.007,15.376 L15.336,15.376 C15.215,15.376 15.098,15.424 15.013,15.509 C14.927,15.594 14.879,15.709 14.879,15.829 L14.879,17.374 C14.879,17.494 14.927,17.609 15.013,17.694 C15.098,17.779 15.215,17.827 15.336,17.827 L15.336,17.826 ZM23.043,22.303 L24.714,22.303 C24.966,22.303 25.171,22.100 25.171,21.850 L25.171,20.306 C25.171,20.056 24.966,19.853 24.714,19.853 L23.043,19.853 C22.790,19.853 22.586,20.056 22.585,20.306 L22.585,21.850 C22.586,22.100 22.790,22.303 23.043,22.303 L23.043,22.303 Z"/></svg>