<?xml version="1.0" standalone="no"?><!DOCTYPE svg PUBLIC "-//W3C//DTD SVG 1.1//EN" "http://www.w3.org/Graphics/SVG/1.1/DTD/svg11.dtd"><svg class="icon" width="32px" height="32.00px" viewBox="0 0 1024 1024" version="1.1" xmlns="http://www.w3.org/2000/svg"><path fill="#ffffff" d="M231.19644445 573.44c-11.94666667 9.67111111-24.80355555 23.66577778-28.44444445 41.52888889-5.00622222 24.34844445-1.024 54.95466667 22.528 78.848 28.44444445 29.01333333 71.79377778 36.97777778 90.56711111 38.34311111 50.85866667 3.64088889 105.01688889-21.504 145.86311111-50.28977778 16.04266667-11.264 43.34933333-33.90577778 69.632-68.94933333-58.70933333-30.26488889-131.98222222-63.82933333-210.26133333-60.52977778-40.27733333 1.70666667-68.94933333 10.01244445-89.88444444 21.04888889z m744.33422222 134.03022222c25.94133333-60.75733333 40.27733333-127.65866667 40.27733333-197.85955555C1015.808 230.51377778 788.70755555 3.41333333 509.61066667 3.41333333 230.4 3.52711111 3.41333333 230.62755555 3.41333333 509.72444445s227.10044445 506.19733333 506.19733334 506.19733333c168.50488889 0 317.89511111-82.71644445 409.94133333-209.69244445C832.512 762.88 689.152 691.76888889 600.74666667 648.64711111c-42.09777778 48.01422222-104.448 96.14222222-174.87644445 117.19111111-44.25955555 13.08444445-84.08177778 18.20444445-125.72444444 9.67111111-41.30133333-8.41955555-71.68-27.76177778-89.42933333-47.104-8.98844445-9.89866667-19.34222222-22.41422222-26.85155556-37.43288888 0.68266667 1.93422222 1.13777778 3.072 1.13777778 3.072s-4.32355555-7.39555555-7.62311112-19.22844445c-1.70666667-5.68888889-2.84444445-11.71911111-3.29955555-17.97688889-0.34133333-4.096-0.45511111-8.41955555-0.22755555-12.85688889-0.34133333-7.62311111-0.11377778-15.58755555 1.70666666-23.77955555 4.096-20.02488889 12.62933333-43.34933333 34.816-64.96711112 48.46933333-47.44533333 113.43644445-50.06222222 147.11466667-49.83466666 49.83466667 0.22755555 136.53333333 22.07288889 209.46488889 47.90044444 20.25244445-43.008 33.10933333-89.088 41.52888888-119.69422222H305.26577778v-32.768h155.76177777v-65.536H272.384v-32.768h188.52977778V236.65777778c0-8.98844445 1.82044445-16.384 16.384-16.384h73.728v81.92h204.91377777v32.768h-204.8V400.49777778h163.95377778s-16.49777778 91.81866667-67.92533333 182.272c114.23288889 40.84622222 274.88711111 103.76533333 328.36266667 124.70044444z" /></svg>