<svg  xmlns="http://www.w3.org/2000/svg" xmlns:xlink="http://www.w3.org/1999/xlink" width="35px" height="36px"><path fill-rule="evenodd"  stroke="rgb(153, 153, 153)" stroke-width="2px" stroke-linecap="butt" stroke-linejoin="miter" fill="none" d="M20.867,13.874 C21.446,11.285 21.850,9.413 22.081,8.254 C22.660,5.334 21.155,2.622 18.172,2.622 C15.482,2.622 14.132,3.960 13.335,6.636 L13.314,6.714 C12.836,8.877 12.105,10.555 11.137,11.755 C10.118,13.023 8.592,13.775 6.967,13.811 L6.204,13.828 C4.384,13.867 2.929,15.367 2.929,17.203 L2.929,28.286 C2.929,30.546 4.744,32.378 6.984,32.378 L21.352,32.378 C24.303,32.378 26.938,30.510 27.939,27.708 L30.924,19.354 C31.683,17.228 30.592,14.883 28.485,14.117 C28.044,13.956 27.579,13.874 27.110,13.874 L20.867,13.874 Z"/></svg>