<svg  xmlns="http://www.w3.org/2000/svg" xmlns:xlink="http://www.w3.org/1999/xlink" width="30px" height="31px"><path fill-rule="evenodd"  fill="rgb(0, 143, 255)" d="M18.867,11.874 C19.446,9.285 19.850,7.413 20.081,6.254 C20.660,3.334 19.155,0.622 16.172,0.622 C13.482,0.622 12.132,1.960 11.335,4.636 L11.314,4.714 C10.836,6.877 10.105,8.555 9.137,9.755 C8.118,11.023 6.592,11.775 4.967,11.811 L4.204,11.828 C2.384,11.867 0.929,13.367 0.929,15.203 L0.929,26.286 C0.929,28.546 2.744,30.378 4.984,30.378 L19.352,30.378 C22.303,30.378 24.938,28.510 25.939,25.708 L28.924,17.354 C29.683,15.228 28.592,12.883 26.485,12.117 C26.044,11.956 25.579,11.874 25.110,11.874 L18.867,11.874 Z"/></svg>