<?xml version="1.0" standalone="no"?><!DOCTYPE svg PUBLIC "-//W3C//DTD SVG 1.1//EN" "http://www.w3.org/Graphics/SVG/1.1/DTD/svg11.dtd"><svg t="1646352021532" class="icon" viewBox="0 0 1024 1024" version="1.1" xmlns="http://www.w3.org/2000/svg" p-id="10106" xmlns:xlink="http://www.w3.org/1999/xlink" width="48" height="48"><defs><style type="text/css"></style></defs><path d="M512 512m-512 0a512 512 0 1 0 1024 0 512 512 0 1 0-1024 0Z" fill="#A7F9DE" p-id="10107"></path><path d="M409.134545 282.298182l-101.236363-101.236364a23.272727 23.272727 0 0 0-33.047273 1.629091l-74.938182 91.461818a111.709091 111.709091 0 0 0-6.050909 134.050909 1661.905455 1661.905455 0 0 0 421.934546 421.701819 111.709091 111.709091 0 0 0 134.050909-6.05091l91.461818-74.705454a23.272727 23.272727 0 0 0 1.629091-33.047273l-101.003637-101.003636a44.683636 44.683636 0 0 0-53.294545-7.447273l-83.316364 46.545455a44.683636 44.683636 0 0 1-53.294545-7.447273l-174.312727-174.312727a44.683636 44.683636 0 0 1-7.447273-53.527273l46.545454-83.316364a44.683636 44.683636 0 0 0-7.68-53.294545z" fill="#1CD38D" p-id="10108"></path></svg>